<svg viewBox="0 0 1152 98" x="0" y="0" fill="none" xmlns="http://www.w3.org/2000/svg"><defs><clipPath id="clip1_5_573" xmlns="http://www.w3.org/2000/svg">
<rect width="40" height="40" fill="white" transform="translate(4, 29)"/>
</clipPath><clipPath id="clip2_5_573" xmlns="http://www.w3.org/2000/svg">
<rect width="40" height="28" fill="white" transform="translate(188, 34.84699999999998)"/>
</clipPath><clipPath id="clip3_5_573" xmlns="http://www.w3.org/2000/svg">
<rect width="55" height="30" fill="white" transform="translate(365, 33.84699999999998)"/>
</clipPath><clipPath id="clip4_5_573" xmlns="http://www.w3.org/2000/svg">
<rect width="47" height="29" fill="white" transform="translate(553, 34.84699999999998)"/>
</clipPath><clipPath id="clip5_5_573" xmlns="http://www.w3.org/2000/svg">
<rect width="41" height="27" fill="white" transform="translate(740, 35.84699999999998)"/>
</clipPath><clipPath id="clip6_5_573" xmlns="http://www.w3.org/2000/svg">
<rect width="52" height="20" fill="white" transform="translate(918, 38.84699999999998)"/>
</clipPath><clipPath id="clip7_5_573" xmlns="http://www.w3.org/2000/svg">
<rect width="55" height="30" fill="white" transform="translate(1101, 33.84699999999998)"/>
</clipPath></defs><g id="Clients Logos" xmlns="http://www.w3.org/2000/svg">
<g id="Logo">
<g id="Logo_2" clip-path="url(#clip1_5_573)">
<path id="Vector_236" fill-rule="evenodd" clip-rule="evenodd" d="M14,29c5.523,0 10,4.477 10,10v-10h10c5.523,0 10,4.477 10,10c0,5.523 -4.477,10 -10,10c5.523,0 10,4.477 10,10c0,2.742 -1.104,5.227 -2.891,7.033l-0.038,0.038l-0.033,0.033c-1.807,1.79 -4.293,2.896 -7.038,2.896c-2.726,0 -5.197,-1.091 -7.001,-2.86c-0.023,-0.022 -0.047,-0.046 -0.07,-0.069c-0.022,-0.022 -0.044,-0.044 -0.065,-0.066c-1.772,-1.804 -2.864,-4.277 -2.864,-7.005c0,5.523 -4.477,10 -10,10c-5.523,0 -10,-4.477 -10,-10v-10h10c-5.523,0 -10,-4.477 -10,-10c0,-5.523 4.477,-10 10,-10zM22,39c0,4.418 -3.582,8 -8,8v-16c4.418,0 8,3.582 8,8zM42,59c0,-4.418 -3.582,-8 -8,-8c-4.418,0 -8,3.582 -8,8zM6,51v8c0,4.418 3.582,8 8,8c4.418,0 8,-3.582 8,-8v-8zM26,47v-16h8c4.418,0 8,3.582 8,8c0,4.418 -3.582,8 -8,8z" fill="#263238"/>
</g>
</g>
<g id="Logo_3">
<g id="Logo_4" clip-path="url(#clip2_5_573)">
<path id="Vector_237" fill-rule="evenodd" clip-rule="evenodd" d="M197.986,38.961l-9.986,9.886c1.997,1.977 4.279,3.643 6.767,4.947c0.687,1.806 1.765,3.499 3.233,4.952c5.523,5.468 14.477,5.468 20,0c1.468,-1.453 2.546,-3.146 3.233,-4.952c2.488,-1.304 4.77,-2.97 6.767,-4.947l-9.978,-9.878c-0.007,-0.007 -0.015,-0.014 -0.022,-0.022c-5.523,-5.467 -14.477,-5.467 -20,0c-0.005,0.005 -0.009,0.01 -0.014,0.014zM217.045,55.578c-2.91,0.972 -5.965,1.47 -9.045,1.47c-3.08,0 -6.134,-0.498 -9.044,-1.47c0.315,0.414 0.663,0.811 1.044,1.188c4.418,4.374 11.582,4.374 16,0c0.381,-0.377 0.729,-0.774 1.045,-1.188zM200.205,40.729c0.75,0.491 1.548,0.911 2.383,1.253c1.716,0.704 3.555,1.066 5.412,1.066c1.857,0 3.696,-0.362 5.412,-1.066c0.835,-0.342 1.633,-0.762 2.383,-1.253c-4.363,-4.11 -11.227,-4.11 -15.59,0z" fill="#3B4158"/>
</g>
</g>
<g id="Logo_5">
<g id="Logo_6" clip-path="url(#clip3_5_573)">
<path id="Vector_238" d="M419.996,44.516c0.005,-0.041 0.005,-0.083 0,-0.125c0.005,-0.034 0.005,-0.069 0,-0.103l-0.408,-2.932c-0.058,-0.351 -0.216,-0.679 -0.454,-0.948l-0.07,-0.079l-0.127,-0.126l-7.054,-5.957l0.198,0.194c-0.162,-0.189 -0.365,-0.341 -0.595,-0.444c-0.23,-0.103 -0.48,-0.154 -0.732,-0.149h-2.142c-0.348,-0.007 -0.688,0.102 -0.966,0.308c-0.291,-0.205 -0.642,-0.313 -1.001,-0.308h-2.142c-0.281,-0.004 -0.558,0.064 -0.803,0.198c-0.245,0.134 -0.45,0.33 -0.593,0.567c-0.222,0.338 -0.305,0.745 -0.233,1.141l0.268,1.848c-0.178,-0.098 -0.379,-0.149 -0.582,-0.148h-10.371c-0.372,0.002 -0.736,0.109 -1.048,0.308c-0.302,0.185 -0.544,0.45 -0.698,0.765l-0.803,-0.674c-0.316,-0.286 -0.734,-0.442 -1.164,-0.433h-16.272c-0.374,0.006 -0.739,0.109 -1.06,0.296c-0.438,0.252 -0.76,0.661 -0.896,1.142l-5.168,16.945c-0.096,0.279 -0.106,0.58 -0.027,0.865c0.079,0.284 0.242,0.54 0.469,0.733c0.06,0.049 0.122,0.095 0.187,0.136c0,0 -0.105,-0.068 -0.163,-0.125l7.053,5.968c0.299,0.269 0.689,0.42 1.094,0.422h16.401c0.374,-0.009 0.739,-0.116 1.059,-0.308c0.18,-0.097 0.342,-0.224 0.477,-0.377l0.058,-0.079l0.093,-0.114l0.07,-0.126l0.768,0.65c0.294,0.259 0.676,0.401 1.071,0.4h16.435c0.374,-0.012 0.739,-0.118 1.059,-0.308c0.177,-0.103 0.338,-0.23 0.478,-0.377l0.058,-0.08l0.093,-0.114c0.05,-0.072 0.092,-0.148 0.128,-0.228c0.038,-0.069 0.069,-0.142 0.093,-0.217l4.714,-15.473v-0.137c0.006,-0.053 0.006,-0.107 0,-0.16v-0.103c0.006,-0.034 0.006,-0.068 0,-0.102c0.005,-0.073 0.005,-0.145 0,-0.217h1.513c0.132,0.012 0.264,0.012 0.396,0h0.105c0.085,-0.025 0.167,-0.06 0.244,-0.103h0.117l0.209,-0.16l0.093,-0.068l0.163,-0.206v-0.068l0.117,-0.194c-0.007,-0.038 -0.007,-0.076 0,-0.114c-0.007,-0.019 -0.007,-0.039 0,-0.057c0.024,-0.067 0.044,-0.136 0.058,-0.206c-0.006,-0.022 -0.006,-0.046 0,-0.068c-0.006,-0.034 -0.006,-0.069 0,-0.103c0,0 0.233,-0.445 0.233,-0.468z" fill="black"/>
<path id="Vector_239" d="M388.953,38.72c0.062,0.054 0.105,0.127 0.124,0.206c0.018,0.08 0.012,0.163 -0.019,0.239l-5.157,16.934c-0.065,0.185 -0.197,0.339 -0.372,0.433c-0.142,0.094 -0.307,0.149 -0.477,0.16h-16.389c-0.14,-0.006 -0.272,-0.063 -0.372,-0.16c-0.06,-0.054 -0.102,-0.124 -0.12,-0.201c-0.019,-0.077 -0.014,-0.158 0.015,-0.232l5.168,-16.934c0.059,-0.187 0.188,-0.346 0.361,-0.445c0.144,-0.087 0.308,-0.138 0.477,-0.149h16.388c0.139,0.002 0.272,0.055 0.373,0.149zM380.398,52.687l3.084,-10.11h-8.636l-3.073,10.11zM404.596,38.891c0.056,0.064 0.126,0.114 0.205,0.148c0.078,0.033 0.164,0.049 0.249,0.046h2.13c0.082,0.001 0.162,-0.019 0.233,-0.057c0.071,-0.038 0.131,-0.093 0.175,-0.16c0.038,-0.052 0.064,-0.112 0.078,-0.174c0.014,-0.063 0.015,-0.128 0.003,-0.191l-0.419,-3.013c-0.04,-0.139 -0.111,-0.268 -0.209,-0.376c-0.056,-0.064 -0.126,-0.114 -0.205,-0.148c-0.078,-0.034 -0.164,-0.049 -0.249,-0.046h-2.13c-0.081,-0.001 -0.161,0.019 -0.233,0.056c-0.071,0.038 -0.131,0.094 -0.175,0.161c-0.081,0.159 -0.116,0.262 -0.081,0.353l0.431,3.013c0.022,0.147 0.091,0.283 0.197,0.388zM411.359,35.468c-0.04,-0.14 -0.111,-0.269 -0.209,-0.377c-0.054,-0.063 -0.122,-0.114 -0.199,-0.148c-0.076,-0.033 -0.16,-0.049 -0.244,-0.046h-2.141c-0.08,-0.002 -0.159,0.017 -0.229,0.055c-0.069,0.038 -0.127,0.094 -0.167,0.162c-0.078,0.101 -0.111,0.228 -0.093,0.354l0.43,3.012c0.027,0.145 0.096,0.28 0.198,0.388c0.057,0.063 0.127,0.112 0.206,0.146c0.078,0.033 0.163,0.05 0.248,0.048h2.142c0.079,0.001 0.158,-0.018 0.227,-0.056c0.07,-0.039 0.128,-0.094 0.169,-0.161c0.04,-0.051 0.068,-0.11 0.083,-0.173c0.014,-0.063 0.013,-0.129 -0.002,-0.192zM402.722,40.032l-0.209,-1.483h-10.324c-0.162,0.008 -0.319,0.06 -0.454,0.148c-0.086,0.046 -0.161,0.109 -0.219,0.186c-0.058,0.077 -0.099,0.165 -0.119,0.259l-0.861,2.83c-0.035,0.071 -0.046,0.15 -0.034,0.227c0.013,0.078 0.049,0.15 0.104,0.206c0.098,0.091 0.226,0.144 0.361,0.149h12.547l-3.084,10.11h-12.513c-0.161,0.004 -0.319,0.051 -0.454,0.137c-0.165,0.102 -0.285,0.261 -0.338,0.445l-0.872,2.83c-0.029,0.073 -0.036,0.151 -0.022,0.228c0.014,0.077 0.05,0.148 0.103,0.206c0.095,0.096 0.224,0.153 0.361,0.159h16.435c0.17,-0.014 0.334,-0.069 0.477,-0.159c0.172,-0.095 0.301,-0.25 0.361,-0.434l4.726,-15.473h-5.32c-0.084,0.001 -0.168,-0.014 -0.246,-0.046c-0.078,-0.031 -0.149,-0.078 -0.208,-0.137c-0.096,-0.104 -0.164,-0.229 -0.198,-0.365z" fill="white"/>
</g>
</g>
<g id="Logo_7">
<g id="Logo_8" clip-path="url(#clip4_5_573)">
<path id="Vector_240" d="M596.997,38.412c0,0.033 0,0.076 -0.009,0.101c-0.044,0.33 -0.044,0.659 -0.018,0.997c0.018,0.085 0.035,0.17 0.106,0.237c0.114,0.127 0.29,0.102 0.361,-0.051c0.035,-0.076 0.035,-0.152 0.017,-0.228c-0.088,-0.321 -0.105,-0.659 -0.114,-0.989c0,-0.017 0,-0.042 0,-0.067c0.097,-0.009 0.185,-0.017 0.264,-0.017c0.062,-0.009 0.115,-0.017 0.159,-0.043c0.132,-0.067 0.132,-0.211 -0.009,-0.279c-0.053,-0.025 -0.123,-0.033 -0.185,-0.033c-0.22,0.008 -0.44,0.008 -0.661,0.008c-0.079,0 -0.158,0.008 -0.237,0.017c-0.044,0.008 -0.097,0.008 -0.132,0.034c-0.062,0.025 -0.097,0.067 -0.097,0.127c0.008,0.059 0.035,0.093 0.097,0.118c0.035,0.025 0.079,0.034 0.123,0.034c0.105,0.008 0.22,0.025 0.335,0.034zM599.419,38.8c0,0.009 0.008,0.017 0.008,0.017c0.036,0.229 0.071,0.448 0.097,0.668c0.009,0.076 0.018,0.144 0.071,0.203c0.114,0.144 0.29,0.127 0.37,-0.025c0.035,-0.076 0.044,-0.153 0.026,-0.237c-0.053,-0.254 -0.079,-0.507 -0.132,-0.752c-0.035,-0.153 -0.079,-0.296 -0.123,-0.432c-0.027,-0.084 -0.088,-0.143 -0.194,-0.152c-0.106,-0.017 -0.185,0.034 -0.229,0.11c-0.053,0.068 -0.097,0.135 -0.132,0.212c-0.062,0.135 -0.115,0.27 -0.185,0.397c-0.009,0.034 -0.018,0.059 -0.035,0.084c-0.009,-0.017 -0.018,-0.025 -0.018,-0.025c-0.114,-0.211 -0.22,-0.423 -0.335,-0.626c-0.017,-0.016 -0.026,-0.033 -0.035,-0.05c-0.053,-0.076 -0.114,-0.119 -0.211,-0.119c-0.088,0.009 -0.159,0.06 -0.203,0.136c-0.017,0.033 -0.017,0.059 -0.026,0.093c-0.036,0.27 -0.08,0.541 -0.115,0.811c-0.017,0.152 -0.026,0.304 -0.026,0.457c-0.009,0.033 0,0.076 0.017,0.11c0.018,0.067 0.071,0.109 0.141,0.118c0.088,0.008 0.15,-0.017 0.176,-0.085c0.027,-0.05 0.036,-0.093 0.045,-0.135c0.035,-0.152 0.061,-0.296 0.088,-0.439c0.017,-0.085 0.026,-0.153 0.052,-0.246c0.018,0.034 0.036,0.06 0.053,0.085c0.08,0.101 0.159,0.203 0.256,0.287c0.097,0.068 0.176,0.059 0.255,-0.017c0.018,-0.017 0.027,-0.025 0.044,-0.042c0.079,-0.118 0.176,-0.237 0.256,-0.355c0.017,-0.017 0.026,-0.034 0.044,-0.051z" fill="#3A3B7B"/>
<path id="Vector_241" d="M579.124,38.578c-0.061,0.16 -0.072,0.276 -0.044,0.372c0.031,0.131 0.112,0.174 0.222,0.141c1.035,-0.246 3.303,0.451 4.143,0.645c0.198,0.041 0.359,-0.204 0.224,-0.424c-0.197,-0.214 -2.465,-1.126 -3.33,-1.176c-0.339,-0.018 -0.945,-0.101 -1.215,0.442z" fill="#3A3B7B"/>
<path id="Vector_242" d="M587.99,35.624c0.111,0.061 0.172,0.12 0.203,0.185c0.045,0.085 0.021,0.144 -0.055,0.174c-0.684,0.321 -1.594,1.7 -1.961,2.175c-0.089,0.11 -0.295,0.046 -0.326,-0.134c0.007,-0.203 0.813,-1.7 1.264,-2.107c0.176,-0.159 0.469,-0.472 0.875,-0.293z" fill="#3A3B7B"/>
<path id="Vector_243" d="M582.544,34.946c0.133,-0.096 0.271,-0.13 0.341,-0.068c1.032,0.847 1.579,2.188 1.918,3.416c0.012,0.029 0.013,0.07 0.003,0.113c-0.004,0.036 -0.032,0.075 -0.076,0.105c-0.048,0.033 -0.088,0.043 -0.107,0.014c-0.453,-0.59 -3.035,-2.887 -2.079,-3.58z" fill="#3A3B7B"/>
<path id="Vector_244" d="M560.695,49.629c0.248,-0.177 0.516,-0.324 0.801,-0.438c0.297,-0.082 0.615,-0.069 0.904,0.038c0.289,0.107 0.533,0.301 0.697,0.553c0.147,0.252 0.204,0.542 0.163,0.828c-0.04,0.285 -0.176,0.55 -0.387,0.755c-0.164,0.166 -0.35,0.311 -0.552,0.431c-0.905,0.561 -1.818,1.091 -2.731,1.652c-0.186,0.14 -0.384,0.266 -0.592,0.376c-0.316,0.151 -0.677,0.192 -1.02,0.115c-0.344,-0.078 -0.648,-0.268 -0.862,-0.537c-0.159,-0.192 -0.293,-0.401 -0.4,-0.623c-0.865,-1.744 -1.761,-3.481 -2.594,-5.256c-0.384,-0.768 -0.696,-1.652 -1.001,-2.505c-0.131,-0.248 -0.157,-0.535 -0.071,-0.801c0.085,-0.265 0.276,-0.489 0.53,-0.622c0.255,-0.133 0.553,-0.165 0.832,-0.091c0.28,0.075 0.517,0.252 0.663,0.492c0.448,0.571 0.844,1.178 1.185,1.814c0.864,1.536 1.689,3.073 2.522,4.564c0.048,0.082 0.102,0.162 0.16,0.238c0.627,-0.253 1.216,-0.583 1.753,-0.983z" fill="#3A3B7B"/>
<path id="Vector_245" d="M569.635,49.092c-1.977,2.221 -5.292,1.66 -6.957,-1.198c-1.185,-2.029 -1.393,-5.379 1.185,-7.492c0.55,-0.443 1.209,-0.744 1.913,-0.876c0.864,-0.119 1.745,0.027 2.518,0.418c0.772,0.39 1.395,1.005 1.782,1.756c1.409,2.459 1.209,5.594 -0.441,7.392zM568.835,43.913c-0.21,-0.604 -0.632,-1.12 -1.193,-1.46c-0.318,-0.217 -0.704,-0.323 -1.093,-0.299c-0.389,0.024 -0.758,0.176 -1.045,0.43c-1.145,0.976 -1.385,3.289 -0.552,4.664c0.106,0.225 0.262,0.424 0.457,0.584c0.194,0.161 0.423,0.278 0.67,0.345c0.247,0.067 0.507,0.081 0.76,0.041c0.253,-0.04 0.494,-0.132 0.707,-0.27c0.62,-0.462 1.076,-1.098 1.302,-1.82c0.227,-0.721 0.214,-1.493 -0.037,-2.207z" fill="#3A3B7B"/>
<path id="Vector_246" d="M577.706,44.882c-0.203,0.041 -0.412,0.044 -0.616,0.007c-0.203,-0.037 -0.397,-0.113 -0.569,-0.223c-0.151,-0.082 -0.281,-0.196 -0.381,-0.333c-0.1,-0.137 -0.166,-0.294 -0.195,-0.458c-0.029,-0.165 -0.02,-0.333 0.027,-0.494c0.047,-0.161 0.13,-0.31 0.244,-0.436c0.199,-0.253 0.481,-0.435 0.801,-0.515c0.835,-0.232 1.694,-0.374 2.562,-0.422c0.191,-0.022 0.384,-0.006 0.568,0.045c0.185,0.052 0.356,0.138 0.506,0.254c0.149,0.116 0.272,0.259 0.363,0.422c0.09,0.162 0.146,0.34 0.164,0.524c0.25,0.901 0.278,1.845 0.08,2.758c-0.72,2.951 -3.202,3.965 -5.988,3.02c-0.782,-0.253 -1.468,-0.724 -1.97,-1.352c-0.669,-0.758 -1.143,-1.655 -1.385,-2.621c-0.196,-0.859 -0.174,-1.752 0.063,-2.602c0.236,-0.85 0.682,-1.633 1.298,-2.285c0.585,-0.708 1.345,-1.265 2.21,-1.621c0.547,-0.289 1.186,-0.372 1.793,-0.231c0.138,0.037 0.263,0.108 0.362,0.207c0.099,0.098 0.169,0.221 0.203,0.354c0.034,0.133 0.029,0.272 -0.012,0.404c-0.042,0.131 -0.119,0.249 -0.224,0.342c-0.2,0.173 -0.418,0.328 -0.649,0.461c-0.712,0.435 -1.331,0.995 -1.825,1.652c-0.324,0.425 -0.548,0.912 -0.654,1.429c-0.107,0.516 -0.094,1.049 0.037,1.56c0.182,0.697 0.585,1.323 1.153,1.79c1.761,1.537 4.051,0.054 3.651,-2.044c-0.585,0.139 -1.097,0.285 -1.617,0.408z" fill="#3A3B7B"/>
<path id="Vector_247" d="M588.466,49.215c-2.602,1.537 -5.564,0 -6.213,-3.227c-0.472,-2.305 0.425,-5.532 3.563,-6.762c0.668,-0.256 1.392,-0.346 2.106,-0.261c0.857,0.15 1.643,0.556 2.248,1.158c0.605,0.602 0.997,1.372 1.122,2.2c0.529,2.743 -0.672,5.671 -2.826,6.892zM589.371,44.044c-0.001,-0.638 -0.236,-1.256 -0.665,-1.744c-0.229,-0.302 -0.56,-0.519 -0.937,-0.613c-0.376,-0.093 -0.775,-0.059 -1.128,0.098c-1.409,0.584 -2.402,2.705 -2.042,4.265c0.028,0.244 0.11,0.481 0.243,0.691c0.132,0.211 0.311,0.392 0.524,0.529c0.213,0.138 0.454,0.229 0.708,0.268c0.253,0.039 0.512,0.024 0.759,-0.044c0.745,-0.249 1.389,-0.716 1.844,-1.335c0.455,-0.618 0.698,-1.358 0.694,-2.115z" fill="#3A3B7B"/>
<path id="Vector_248" d="M593.924,49.861c-0.04,0.281 -0.194,0.536 -0.429,0.708c-0.235,0.172 -0.531,0.248 -0.824,0.21c-0.293,-0.038 -0.559,-0.185 -0.738,-0.411c-0.18,-0.225 -0.258,-0.51 -0.219,-0.791c0.039,-0.282 0.193,-0.536 0.428,-0.709c0.235,-0.172 0.532,-0.247 0.825,-0.21c0.293,0.038 0.558,0.186 0.738,0.411c0.179,0.226 0.258,0.511 0.219,0.792zM593.227,39.495c0.152,-0.223 0.376,-0.393 0.637,-0.485c0.261,-0.091 0.546,-0.099 0.812,-0.022c0.271,0.065 0.51,0.217 0.678,0.431c0.167,0.214 0.253,0.477 0.243,0.744c-0.035,0.43 -0.102,0.856 -0.2,1.276c-0.264,1.422 -0.521,2.843 -0.801,4.249c-0.128,0.561 -0.296,1.099 -0.48,1.668c-0.064,0.178 -0.171,0.338 -0.313,0.469c-0.087,0.098 -0.199,0.173 -0.325,0.218c-0.127,0.046 -0.262,0.06 -0.396,0.042c-0.133,-0.019 -0.259,-0.069 -0.367,-0.147c-0.108,-0.078 -0.193,-0.18 -0.249,-0.298c-0.095,-0.211 -0.146,-0.438 -0.152,-0.668c0,-0.953 0,-1.914 0.064,-2.874c0.109,-1.371 0.323,-2.732 0.641,-4.073c0.037,-0.179 0.108,-0.351 0.208,-0.507z" fill="#3A3B7B"/>
<path id="Vector_249" fill-rule="evenodd" clip-rule="evenodd" d="M557.313,56.036c-0.095,0.202 -0.121,0.428 -0.075,0.645c0.031,0.287 0.099,0.569 0.201,0.839c0.129,0.332 0.272,0.659 0.449,1.063c0.041,0.093 0.083,0.19 0.128,0.292c0.238,0.547 0.538,1.247 0.937,2.259c0.113,0.287 0.214,0.577 0.315,0.869c0.041,0.118 0.082,0.236 0.124,0.355c0.15,0.421 0.409,0.8 0.752,1.1c0.145,0.165 0.338,0.285 0.555,0.345c0.221,0.062 0.456,0.058 0.674,-0.011c0.219,-0.068 0.411,-0.198 0.551,-0.373c0.138,-0.171 0.219,-0.378 0.235,-0.593c0.09,-0.421 0.059,-0.856 -0.088,-1.261c-0.234,-0.673 -0.5,-1.346 -0.806,-2.005l-0.002,-0.003c-0.505,-1.03 -1.018,-2.054 -1.555,-3.078l-0.004,-0.007c-0.157,-0.266 -0.362,-0.505 -0.604,-0.704c-0.158,-0.178 -0.375,-0.298 -0.614,-0.34c-0.245,-0.042 -0.498,0 -0.713,0.12c-0.203,0.112 -0.365,0.283 -0.46,0.488z" fill="#3A3B7B"/>
<path id="Vector_250" fill-rule="evenodd" clip-rule="evenodd" d="M565.022,53.498c-0.791,-0.197 -1.618,-0.225 -2.422,-0.084c-0.623,0.059 -1.235,0.197 -1.661,0.47c-0.216,0.139 -0.391,0.318 -0.488,0.544c-0.098,0.228 -0.11,0.489 -0.03,0.78c0.146,0.532 0.336,1.05 0.526,1.566l0.03,0.084l0.001,0.001c0.57,1.5 1.146,2.993 1.727,4.482c0.068,0.235 0.164,0.461 0.286,0.675l0.002,0.004c0.161,0.265 0.368,0.502 0.611,0.701c0.122,0.11 0.272,0.186 0.435,0.22c0.165,0.034 0.337,0.024 0.496,-0.029c0.159,-0.053 0.301,-0.147 0.408,-0.272c0.106,-0.122 0.175,-0.27 0.201,-0.427c0.105,-0.428 0.071,-0.875 -0.097,-1.284c-0.052,-0.137 -0.093,-0.278 -0.137,-0.426c-0.014,-0.049 -0.029,-0.099 -0.044,-0.15c1.33,-0.499 2.745,-1.17 3.242,-2.731c0.195,-0.539 0.212,-1.123 0.047,-1.672c-0.165,-0.549 -0.503,-1.036 -0.968,-1.393c-0.632,-0.5 -1.371,-0.862 -2.165,-1.059zM562.828,55.412c0.027,-0.007 0.053,-0.014 0.079,-0.02c0.866,-0.13 1.752,0.044 2.495,0.49c0.327,0.219 0.461,0.461 0.484,0.695c0.024,0.241 -0.067,0.501 -0.25,0.752c-0.346,0.473 -0.977,0.852 -1.547,0.922c-0.416,-0.918 -0.838,-1.874 -1.261,-2.839z" fill="#3A3B7B"/>
<path id="Vector_251" d="M570.299,51.817c0.943,-0.418 2.11,-0.49 3.024,-0.197c0.23,0.065 0.43,0.204 0.565,0.394c0.134,0.189 0.196,0.417 0.175,0.644c-0.001,0.148 -0.039,0.293 -0.11,0.425c-0.073,0.133 -0.178,0.248 -0.306,0.334c-0.128,0.087 -0.276,0.142 -0.432,0.162c-0.155,0.02 -0.314,0.004 -0.461,-0.047l-0.011,-0.004l-0.011,-0.006c-0.075,-0.038 -0.155,-0.066 -0.238,-0.085l-0.006,-0.001c-0.642,-0.164 -1.248,0.108 -1.47,0.441c-0.106,0.159 -0.119,0.32 -0.031,0.466c0.095,0.156 0.326,0.332 0.793,0.457c0.129,0.034 0.26,0.067 0.394,0.1c0.37,0.092 0.754,0.187 1.126,0.319l0.001,0.001c1.714,0.626 2.352,1.922 2.134,3.141c-0.217,1.206 -1.266,2.303 -2.843,2.562c-0.574,0.122 -1.172,0.098 -1.734,-0.069c-0.563,-0.168 -1.07,-0.474 -1.472,-0.889l-0.01,-0.01c-0.127,-0.157 -0.212,-0.34 -0.25,-0.535c-0.035,-0.175 -0.016,-0.357 0.053,-0.523c0.068,-0.165 0.185,-0.308 0.335,-0.412c0.158,-0.118 0.349,-0.188 0.549,-0.203c0.2,-0.015 0.399,0.027 0.574,0.119c0.175,0.081 0.338,0.185 0.484,0.308l0.002,0.002c0.259,0.227 0.571,0.286 0.871,0.231c0.304,-0.055 0.59,-0.228 0.773,-0.457c0.183,-0.228 0.256,-0.498 0.169,-0.76c-0.087,-0.265 -0.351,-0.561 -0.929,-0.809c-0.151,-0.061 -0.308,-0.111 -0.471,-0.159c-0.044,-0.013 -0.089,-0.026 -0.134,-0.04c-0.121,-0.035 -0.245,-0.071 -0.366,-0.111c-0.084,-0.027 -0.167,-0.053 -0.25,-0.079c-0.225,-0.07 -0.444,-0.139 -0.655,-0.231c-0.459,-0.15 -0.856,-0.438 -1.132,-0.822c-0.276,-0.385 -0.415,-0.846 -0.396,-1.313c0.001,-1.14 0.749,-1.924 1.696,-2.344z" fill="#3A3B7B"/>
<path id="Vector_252" d="M582.249,51.695c-0.183,-0.085 -0.385,-0.126 -0.588,-0.118c-0.204,0.008 -0.401,0.064 -0.576,0.164c-0.174,0.099 -0.319,0.238 -0.424,0.404c-0.095,0.14 -0.161,0.297 -0.194,0.461c-0.033,0.164 -0.032,0.333 0.002,0.497c0.034,0.21 0.072,0.415 0.109,0.617c0.062,0.334 0.122,0.66 0.161,0.993l0.002,0.009c0.09,0.522 0.137,1.05 0.142,1.579v0.008c0.031,0.572 -0.172,1.132 -0.565,1.562l-0.007,0.008c-0.127,0.157 -0.298,0.277 -0.493,0.347c-0.195,0.069 -0.407,0.085 -0.611,0.046c-0.204,-0.039 -0.392,-0.132 -0.544,-0.269c-0.152,-0.136 -0.262,-0.31 -0.316,-0.503c-0.117,-0.406 -0.185,-0.823 -0.202,-1.244l0.2,-3.049c0.002,-0.04 0.006,-0.081 0.009,-0.122c0.008,-0.092 0.016,-0.187 0.019,-0.275c0.005,-0.129 0.001,-0.262 -0.031,-0.388c-0.032,-0.129 -0.093,-0.252 -0.202,-0.356c-0.107,-0.103 -0.252,-0.18 -0.435,-0.231c-0.33,-0.092 -0.609,-0.089 -0.841,0.006c-0.233,0.094 -0.392,0.27 -0.505,0.473c-0.112,0.202 -0.184,0.44 -0.238,0.679c-0.041,0.177 -0.073,0.363 -0.104,0.54c-0.011,0.061 -0.021,0.121 -0.032,0.179v0.002c-0.165,0.971 -0.214,1.958 -0.146,2.939c0.013,0.531 0.128,1.055 0.34,1.545c0.239,0.633 0.673,1.181 1.243,1.572c0.572,0.392 1.254,0.608 1.957,0.619c0.702,0.011 1.392,-0.182 1.977,-0.555c0.584,-0.373 1.037,-0.907 1.298,-1.532c0.366,-0.796 0.538,-1.661 0.503,-2.53c-0.022,-0.635 -0.058,-1.274 -0.094,-1.911c-0.017,-0.312 -0.035,-0.623 -0.051,-0.933c-0.007,-0.31 -0.114,-0.611 -0.305,-0.861c-0.118,-0.158 -0.276,-0.286 -0.458,-0.372z" fill="#3A3B7B"/>
<path id="Vector_253" d="M588.717,56.476c-0.018,0.023 -0.038,0.046 -0.058,0.071c-0.149,-0.823 -0.287,-1.646 -0.425,-2.47c-0.049,-0.296 -0.099,-0.593 -0.149,-0.889l-0.005,-0.033l-0.019,-0.028c-0.034,-0.054 -0.038,-0.107 -0.038,-0.219v-0.013l-0.002,-0.013c-0.037,-0.232 -0.146,-0.448 -0.313,-0.619c-0.167,-0.171 -0.383,-0.29 -0.621,-0.342c-0.237,-0.056 -0.487,-0.044 -0.717,0.036c-0.23,0.079 -0.43,0.221 -0.576,0.409c-0.121,0.144 -0.22,0.304 -0.295,0.475c-0.168,0.368 -0.339,0.737 -0.51,1.107l-0.002,0.007c-0.427,0.923 -0.856,1.853 -1.273,2.79l-0.001,0.003c-0.256,0.608 -0.467,1.248 -0.678,1.886c-0.042,0.128 -0.084,0.255 -0.126,0.382c-0.076,0.201 -0.11,0.415 -0.098,0.629c-0.014,0.192 0.034,0.383 0.137,0.547c0.105,0.168 0.262,0.301 0.449,0.378c0.199,0.084 0.421,0.102 0.631,0.051c0.21,-0.051 0.397,-0.167 0.53,-0.331c0.171,-0.201 0.318,-0.421 0.437,-0.653c0.353,-0.694 0.691,-1.395 1.027,-2.094c0.13,-0.27 0.256,-0.512 0.4,-0.776c0.009,0.033 0.02,0.064 0.03,0.096c0.151,0.637 0.405,1.246 0.753,1.807c0.066,0.118 0.158,0.222 0.269,0.304c0.113,0.082 0.243,0.14 0.382,0.17c0.138,0.029 0.282,0.029 0.421,0c0.138,-0.029 0.269,-0.087 0.381,-0.169l0.224,-0.161l1.734,-1.402l-0.103,0.628c-0.141,0.862 -0.28,1.716 -0.429,2.572c-0.097,0.378 -0.097,0.774 0.001,1.153c0.042,0.213 0.149,0.41 0.308,0.564c0.161,0.156 0.366,0.261 0.59,0.304c0.223,0.042 0.455,0.018 0.665,-0.068c0.207,-0.084 0.382,-0.226 0.505,-0.406c0.286,-0.34 0.464,-0.752 0.513,-1.187c0.073,-0.614 0.157,-1.237 0.24,-1.859c0.096,-0.717 0.191,-1.434 0.272,-2.137l0.001,-0.002c0.077,-0.77 0.115,-1.543 0.113,-2.316c0.017,-0.245 -0.047,-0.488 -0.182,-0.696c-0.135,-0.209 -0.336,-0.371 -0.573,-0.464c-0.247,-0.108 -0.524,-0.137 -0.789,-0.082c-0.263,0.054 -0.502,0.187 -0.68,0.38c-0.32,0.284 -0.62,0.588 -0.899,0.909l-0.001,0.003c-0.304,0.363 -0.606,0.733 -0.906,1.102c-0.182,0.223 -0.364,0.447 -0.545,0.666z" fill="#3A3B7B"/>
</g>
</g>
<g id="Logo_9">
<g id="Logo_10" clip-path="url(#clip5_5_573)">
<path id="Vector_254" d="M778.438,36.691c0,0.466 0.382,0.843 0.854,0.843h0.854c0.472,0 0.854,-0.377 0.854,-0.843c0,-0.466 -0.382,-0.844 -0.854,-0.844h-0.854c-0.472,0 -0.854,0.378 -0.854,0.844z" fill="#212326"/>
<path id="Vector_255" d="M753.667,62.847h4.149l-1.208,-1.193c-0.32,-0.317 -0.755,-0.495 -1.208,-0.495h-1.733c-6.605,0 -11.959,-5.288 -11.959,-11.812c0,-6.524 5.354,-11.813 11.959,-11.813h13.666c6.605,0 11.959,5.289 11.959,11.813c0,6.524 -5.354,11.812 -11.959,11.812h-5.112c-0.68,0 -1.332,-0.266 -1.812,-0.741l-1.415,-1.398c-0.801,-0.791 -1.888,-1.236 -3.02,-1.236h-2.307c-4.718,0 -8.542,-3.777 -8.542,-8.437c0,-4.66 3.824,-8.438 8.542,-8.438h13.666c4.718,0 8.542,3.778 8.542,8.438c0,4.66 -3.824,8.437 -8.542,8.437h-3.282c-0.68,0 -1.332,-0.266 -1.812,-0.741l-1.416,-1.398c-0.801,-0.791 -1.887,-1.236 -3.02,-1.236h-4.136c-2.831,0 -5.125,-2.266 -5.125,-5.062c0,-2.796 2.294,-5.063 5.125,-5.063h13.666c2.831,0 5.125,2.267 5.125,5.063c0,2.762 -2.239,5.007 -5.021,5.061l-0.001,0.001h-1.25c-0.68,0 -1.331,-0.266 -1.812,-0.741l-1.415,-1.398c-0.657,-0.649 -1.507,-1.065 -2.416,-1.193l-0.043,-0.043h-6.833c-0.944,0 -1.709,-0.755 -1.709,-1.687c0,-0.932 0.765,-1.688 1.709,-1.688h13.666c0.944,0 1.709,0.756 1.709,1.688c0,0.932 -0.765,1.687 -1.709,1.687h-3.416l1.208,1.194c0.32,0.316 0.755,0.494 1.208,0.494h1c1.887,0 3.417,-1.511 3.417,-3.375c0,-1.864 -1.53,-3.375 -3.417,-3.375h-13.666c-1.887,0 -3.417,1.511 -3.417,3.375c0,1.864 1.53,3.375 3.417,3.375h6.272c0.68,0 1.331,0.266 1.812,0.741l1.415,1.398c0.801,0.791 1.887,1.236 3.02,1.236h1.574v-0.013c3.575,-0.218 6.407,-3.151 6.407,-6.737c0,-3.728 -3.06,-6.75 -6.834,-6.75h-13.666c-3.774,0 -6.834,3.022 -6.834,6.75c0,3.728 3.06,6.75 6.834,6.75h4.136c0.68,0 1.332,0.266 1.812,0.741l1.416,1.398c0.801,0.791 1.887,1.236 3.02,1.236h3.282c5.661,0 10.25,-4.533 10.25,-10.125c0,-5.592 -4.589,-10.125 -10.25,-10.125h-13.666c-5.661,0 -10.25,4.533 -10.25,10.125c0,5.592 4.589,10.125 10.25,10.125h2.307c0.679,0 1.331,0.266 1.812,0.741l1.415,1.398c0.801,0.791 1.887,1.236 3.02,1.236h5.112c7.548,0 13.667,-6.044 13.667,-13.5c0,-7.456 -6.119,-13.5 -13.667,-13.5h-13.666c-7.548,0 -13.667,6.044 -13.667,13.5c0,7.456 6.119,13.5 13.667,13.5z" fill="#212326"/>
</g>
</g>
<g id="Logo_11">
<g id="Logo_12" clip-path="url(#clip6_5_573)">
<path id="Vector_256" d="M930.34,38.847c-2.03,0 -3.98,0.807 -5.41,2.242l-4.69,4.687c-1.43,1.436 -2.24,3.383 -2.24,5.414c0,4.229 3.43,7.657 7.66,7.657c2.03,0 3.98,-0.807 5.41,-2.243l3.24,-3.241v0l9.45,-9.445c0.68,-0.686 1.61,-1.071 2.58,-1.071c1.63,0 3,1.058 3.48,2.523l2.98,-2.981c-1.36,-2.13 -3.74,-3.542 -6.46,-3.542c-2.03,0 -3.98,0.807 -5.41,2.242l-12.69,12.687c-0.68,0.686 -1.61,1.071 -2.58,1.071c-2.02,0 -3.66,-1.637 -3.66,-3.657c0,-0.97 0.39,-1.9 1.07,-2.586l4.69,-4.686c0.68,-0.686 1.61,-1.071 2.58,-1.071c1.63,0 3,1.058 3.48,2.523l2.98,-2.981c-1.36,-2.13 -3.74,-3.542 -6.46,-3.542z" fill="#394149"/>
<path id="Vector_257" d="M944.24,53.776c-0.68,0.686 -1.61,1.071 -2.58,1.071c-1.63,0 -3,-1.058 -3.48,-2.522l-2.98,2.98c1.36,2.13 3.74,3.542 6.46,3.542c2.03,0 3.98,-0.807 5.41,-2.243l12.69,-12.686c0.68,-0.686 1.61,-1.071 2.58,-1.071c2.02,0 3.66,1.637 3.66,3.657c0,0.97 -0.39,1.9 -1.07,2.585l-4.69,4.687c-0.68,0.686 -1.61,1.071 -2.58,1.071c-1.63,0 -3,-1.058 -3.48,-2.523l-2.98,2.981c1.36,2.13 3.74,3.542 6.46,3.542c2.03,0 3.98,-0.807 5.41,-2.243l4.69,-4.686c1.43,-1.436 2.24,-3.384 2.24,-5.414c0,-4.229 -3.43,-7.657 -7.66,-7.657c-2.03,0 -3.98,0.807 -5.41,2.242z" fill="#394149"/>
</g>
</g>
<g id="Logo_13">
<g id="Logo_14" clip-path="url(#clip7_5_573)">
<path id="Vector_258" d="M1156,44.516c0,-0.041 0,-0.083 0,-0.125c0,-0.034 0,-0.069 0,-0.103l-0.41,-2.932c-0.06,-0.351 -0.22,-0.679 -0.46,-0.948l-0.07,-0.079l-0.12,-0.126l-7.06,-5.957l0.2,0.194c-0.16,-0.189 -0.36,-0.341 -0.59,-0.444c-0.23,-0.103 -0.48,-0.154 -0.74,-0.149h-2.14c-0.35,-0.007 -0.69,0.102 -0.96,0.308c-0.3,-0.205 -0.65,-0.313 -1,-0.308h-2.15c-0.28,-0.004 -0.55,0.064 -0.8,0.198c-0.25,0.134 -0.45,0.33 -0.59,0.567c-0.22,0.338 -0.31,0.745 -0.24,1.141l0.27,1.848c-0.18,-0.098 -0.38,-0.149 -0.58,-0.148h-10.37c-0.37,0.002 -0.74,0.109 -1.05,0.308c-0.3,0.185 -0.54,0.45 -0.7,0.765l-0.8,-0.674c-0.32,-0.286 -0.73,-0.442 -1.16,-0.433h-16.28c-0.37,0.006 -0.73,0.109 -1.06,0.296c-0.43,0.252 -0.76,0.661 -0.89,1.142l-5.17,16.945c-0.1,0.279 -0.11,0.58 -0.03,0.865c0.08,0.284 0.25,0.54 0.47,0.733c0.06,0.049 0.12,0.095 0.19,0.136c0,0 -0.11,-0.068 -0.16,-0.125l7.05,5.968c0.3,0.269 0.69,0.42 1.09,0.422h16.4c0.38,-0.009 0.74,-0.116 1.06,-0.308c0.18,-0.097 0.34,-0.224 0.48,-0.377l0.06,-0.079l0.09,-0.114l0.07,-0.126l0.77,0.65c0.29,0.259 0.68,0.401 1.07,0.4h16.44c0.37,-0.012 0.73,-0.118 1.05,-0.308c0.18,-0.103 0.34,-0.23 0.48,-0.377l0.06,-0.08l0.09,-0.114c0.05,-0.072 0.1,-0.148 0.13,-0.228c0.04,-0.069 0.07,-0.142 0.09,-0.217l4.72,-15.473v-0.137c0,-0.053 0,-0.107 0,-0.16v-0.103c0,-0.034 0,-0.068 0,-0.102c0,-0.073 0,-0.145 0,-0.217h1.51c0.13,0.012 0.27,0.012 0.4,0h0.1c0.09,-0.025 0.17,-0.06 0.25,-0.103h0.11l0.21,-0.16l0.1,-0.068l0.16,-0.206v-0.068l0.11,-0.194c0,-0.038 0,-0.076 0,-0.114c0,-0.019 0,-0.039 0,-0.057c0.03,-0.067 0.05,-0.136 0.06,-0.206c0,-0.022 0,-0.046 0,-0.068c0,-0.034 0,-0.069 0,-0.103c0,0 0.24,-0.445 0.24,-0.468z" fill="black"/>
<path id="Vector_259" d="M1124.95,38.72c0.06,0.054 0.11,0.127 0.13,0.206c0.02,0.08 0.01,0.163 -0.02,0.239l-5.16,16.934c-0.06,0.185 -0.2,0.339 -0.37,0.433c-0.14,0.094 -0.31,0.149 -0.48,0.16h-16.39c-0.14,-0.006 -0.27,-0.063 -0.37,-0.16c-0.06,-0.054 -0.1,-0.124 -0.12,-0.201c-0.02,-0.077 -0.01,-0.158 0.02,-0.232l5.16,-16.934c0.06,-0.187 0.19,-0.346 0.36,-0.445c0.15,-0.087 0.31,-0.138 0.48,-0.149h16.39c0.14,0.002 0.27,0.055 0.37,0.149zM1116.4,52.687l3.08,-10.11h-8.63l-3.08,10.11zM1140.6,38.891c0.05,0.064 0.12,0.114 0.2,0.148c0.08,0.033 0.16,0.049 0.25,0.046h2.13c0.08,0.001 0.16,-0.019 0.23,-0.057c0.07,-0.038 0.13,-0.093 0.18,-0.16c0.04,-0.052 0.06,-0.112 0.08,-0.174c0.01,-0.063 0.01,-0.128 0,-0.191l-0.42,-3.013c-0.04,-0.139 -0.11,-0.268 -0.21,-0.376c-0.06,-0.064 -0.12,-0.114 -0.2,-0.148c-0.08,-0.034 -0.17,-0.049 -0.25,-0.046h-2.13c-0.08,-0.001 -0.16,0.019 -0.24,0.056c-0.07,0.038 -0.13,0.094 -0.17,0.161c-0.08,0.159 -0.12,0.262 -0.08,0.353l0.43,3.013c0.02,0.147 0.09,0.283 0.2,0.388zM1147.36,35.468c-0.04,-0.14 -0.11,-0.269 -0.21,-0.377c-0.05,-0.063 -0.12,-0.114 -0.2,-0.148c-0.08,-0.033 -0.16,-0.049 -0.24,-0.046h-2.14c-0.08,-0.002 -0.16,0.017 -0.23,0.055c-0.07,0.038 -0.13,0.094 -0.17,0.162c-0.08,0.101 -0.11,0.228 -0.09,0.354l0.43,3.012c0.02,0.145 0.09,0.28 0.2,0.388c0.05,0.063 0.12,0.112 0.2,0.146c0.08,0.033 0.16,0.05 0.25,0.048h2.14c0.08,0.001 0.16,-0.018 0.23,-0.056c0.07,-0.039 0.13,-0.094 0.17,-0.161c0.04,-0.051 0.07,-0.11 0.08,-0.173c0.01,-0.063 0.01,-0.129 0,-0.192zM1138.72,40.032l-0.21,-1.483h-10.32c-0.16,0.008 -0.32,0.06 -0.46,0.148c-0.08,0.046 -0.16,0.109 -0.21,0.186c-0.06,0.077 -0.1,0.165 -0.12,0.259l-0.86,2.83c-0.04,0.071 -0.05,0.15 -0.04,0.227c0.01,0.078 0.05,0.15 0.11,0.206c0.09,0.091 0.22,0.144 0.36,0.149h12.54l-3.08,10.11h-12.51c-0.16,0.004 -0.32,0.051 -0.46,0.137c-0.16,0.102 -0.28,0.261 -0.33,0.445l-0.88,2.83c-0.03,0.073 -0.03,0.151 -0.02,0.228c0.02,0.077 0.05,0.148 0.1,0.206c0.1,0.096 0.23,0.153 0.36,0.159h16.44c0.17,-0.014 0.33,-0.069 0.48,-0.159c0.17,-0.095 0.3,-0.25 0.36,-0.434l4.72,-15.473h-5.32c-0.08,0.001 -0.16,-0.014 -0.24,-0.046c-0.08,-0.031 -0.15,-0.078 -0.21,-0.137c-0.1,-0.104 -0.16,-0.229 -0.2,-0.365z" fill="white"/>
</g>
</g>
</g></svg>