<svg viewBox="0 0 191 29.6717" x="0" y="0" fill="none" xmlns="http://www.w3.org/2000/svg"><g id="Logo_27" xmlns="http://www.w3.org/2000/svg">
<g id="Icon_11">
<path id="Vector_524" d="M23.226,16.24l-6.665,11.41l-6.665,-11.41zM25.011,15.22h-16.908l8.458,14.45z" fill="white"/>
<path id="Vector_525" d="M34.814,2.04l6.665,11.42h-13.33zM34.814,0l-8.458,14.45h16.915z" fill="white"/>
<path id="Vector_526" d="M0,0l7.091,12.78l7.75,-12.46z" fill="currentColor"/>
<path id="Vector_527" d="M16.561,1.12l7.439,12.71h-14.892z" fill="currentColor"/>
<path id="Vector_528" d="M25.915,16.61l7.446,13.06h-15.246l7.569,-13.06z" fill="currentColor"/>
<path id="Vector_529" d="M27.527,15.82l7.287,12.86l7.387,-12.86z" fill="currentColor"/>
</g>
<g id="Nexcent">
<path d="M74.22,2.06v25.18h-4.598l-10.953,-15.85h-0.184v15.85h-5.323v-25.18h4.671l10.867,15.84h0.221v-15.84z" fill="white"/>
<path d="M87.124,27.61c-1.942,0 -3.614,-0.4 -5.015,-1.18c-1.393,-0.8 -2.467,-1.92 -3.221,-3.37c-0.754,-1.46 -1.131,-3.18 -1.131,-5.18c0,-1.94 0.377,-3.64 1.131,-5.11c0.754,-1.47 1.815,-2.61 3.184,-3.43c1.377,-0.82 2.991,-1.23 4.843,-1.23c1.246,0 2.406,0.2 3.479,0.6c1.082,0.4 2.024,0.99 2.828,1.79c0.811,0.79 1.442,1.79 1.893,3c0.45,1.19 0.676,2.59 0.676,4.2v1.44h-15.944v-3.25h11.014c0,-0.75 -0.164,-1.42 -0.491,-2c-0.328,-0.58 -0.783,-1.04 -1.365,-1.37c-0.574,-0.33 -1.241,-0.5 -2.004,-0.5c-0.795,0 -1.499,0.19 -2.114,0.55c-0.606,0.36 -1.082,0.85 -1.426,1.47c-0.344,0.6 -0.52,1.28 -0.529,2.03v3.08c0,0.93 0.172,1.74 0.517,2.42c0.352,0.68 0.848,1.21 1.487,1.58c0.639,0.36 1.397,0.55 2.274,0.55c0.582,0 1.115,-0.08 1.598,-0.25c0.484,-0.16 0.898,-0.41 1.242,-0.73c0.344,-0.33 0.606,-0.73 0.787,-1.21l4.843,0.32c-0.246,1.16 -0.75,2.18 -1.512,3.05c-0.754,0.86 -1.729,1.53 -2.926,2.02c-1.188,0.47 -2.561,0.71 -4.118,0.71z" fill="white"/>
<path d="M103.247,8.36l3.466,6.6l3.553,-6.6h5.372l-5.471,9.44l5.618,9.44h-5.347l-3.725,-6.53l-3.663,6.53h-5.409l5.606,-9.44l-5.409,-9.44z" fill="white"/>
<path d="M126.603,27.61c-1.934,0 -3.598,-0.41 -4.991,-1.23c-1.385,-0.83 -2.45,-1.98 -3.196,-3.44c-0.737,-1.47 -1.106,-3.16 -1.106,-5.07c0,-1.93 0.373,-3.63 1.118,-5.09c0.754,-1.46 1.824,-2.61 3.209,-3.43c1.385,-0.82 3.032,-1.24 4.942,-1.24c1.647,0 3.089,0.3 4.327,0.9c1.237,0.6 2.217,1.44 2.938,2.52c0.721,1.08 1.118,2.35 1.192,3.81h-4.942c-0.139,-0.94 -0.508,-1.7 -1.106,-2.27c-0.59,-0.59 -1.364,-0.88 -2.323,-0.88c-0.812,0 -1.521,0.22 -2.127,0.67c-0.598,0.43 -1.065,1.07 -1.401,1.9c-0.336,0.84 -0.504,1.85 -0.504,3.04c0,1.2 0.163,2.23 0.491,3.07c0.336,0.85 0.808,1.49 1.414,1.93c0.606,0.44 1.315,0.67 2.127,0.67c0.598,0 1.135,-0.13 1.61,-0.37c0.484,-0.25 0.881,-0.61 1.192,-1.07c0.32,-0.48 0.529,-1.05 0.627,-1.71h4.942c-0.082,1.44 -0.475,2.71 -1.18,3.81c-0.697,1.09 -1.659,1.94 -2.889,2.56c-1.229,0.61 -2.684,0.92 -4.364,0.92z" fill="white"/>
<path d="M146.994,27.61c-1.942,0 -3.614,-0.4 -5.015,-1.18c-1.394,-0.8 -2.467,-1.92 -3.221,-3.37c-0.754,-1.46 -1.131,-3.18 -1.131,-5.18c0,-1.94 0.377,-3.64 1.131,-5.11c0.754,-1.47 1.815,-2.61 3.184,-3.43c1.377,-0.82 2.991,-1.23 4.843,-1.23c1.246,0 2.406,0.2 3.479,0.6c1.082,0.4 2.024,0.99 2.828,1.79c0.811,0.79 1.442,1.79 1.893,3c0.45,1.19 0.676,2.59 0.676,4.2v1.44h-15.944v-3.25h11.014c0,-0.75 -0.164,-1.42 -0.491,-2c-0.328,-0.58 -0.783,-1.04 -1.365,-1.37c-0.574,-0.33 -1.242,-0.5 -2.004,-0.5c-0.795,0 -1.499,0.19 -2.114,0.55c-0.607,0.36 -1.082,0.85 -1.426,1.47c-0.344,0.6 -0.521,1.28 -0.529,2.03v3.08c0,0.93 0.172,1.74 0.517,2.42c0.352,0.68 0.848,1.21 1.487,1.58c0.639,0.36 1.397,0.55 2.274,0.55c0.582,0 1.115,-0.08 1.598,-0.25c0.484,-0.16 0.898,-0.41 1.242,-0.73c0.344,-0.33 0.606,-0.73 0.787,-1.21l4.843,0.32c-0.246,1.16 -0.75,2.18 -1.512,3.05c-0.754,0.86 -1.729,1.53 -2.926,2.02c-1.188,0.47 -2.561,0.71 -4.118,0.71z" fill="white"/>
<path d="M164.315,16.32v10.92h-5.237v-18.88h4.991v3.33h0.221c0.418,-1.1 1.119,-1.97 2.103,-2.61c0.983,-0.64 2.175,-0.97 3.577,-0.97c1.311,0 2.454,0.29 3.43,0.86c0.975,0.58 1.733,1.4 2.274,2.46c0.541,1.06 0.811,2.32 0.811,3.79v12.02h-5.237v-11.09c0.008,-1.15 -0.287,-2.06 -0.885,-2.7c-0.598,-0.66 -1.422,-0.99 -2.471,-0.99c-0.705,0 -1.327,0.15 -1.868,0.46c-0.533,0.3 -0.951,0.74 -1.254,1.33c-0.295,0.57 -0.447,1.26 -0.455,2.07z" fill="white"/>
<path d="M190.656,8.36v3.93h-11.371v-3.93zM181.866,3.83h5.237v17.61c0,0.48 0.074,0.86 0.221,1.13c0.148,0.26 0.353,0.44 0.615,0.55c0.27,0.11 0.582,0.16 0.934,0.16c0.246,0 0.492,-0.02 0.738,-0.06c0.246,-0.05 0.434,-0.09 0.565,-0.11l0.824,3.9c-0.262,0.08 -0.631,0.17 -1.106,0.28c-0.476,0.11 -1.053,0.18 -1.734,0.21c-1.262,0.05 -2.368,-0.12 -3.319,-0.51c-0.942,-0.38 -1.676,-0.98 -2.2,-1.79c-0.525,-0.81 -0.783,-1.84 -0.775,-3.07z" fill="white"/>
</g>
</g></svg>