<svg viewBox="0 0 342.4352 315.2456" x="0" y="0" fill="none" xmlns="http://www.w3.org/2000/svg"><g id="mobile-login/rafiki" xmlns="http://www.w3.org/2000/svg">
<g id="Shadow">
<path id="Vector_280" d="M171.2172,315.2407c94.561,0 171.218,-4.47 171.218,-9.99c0,-5.52 -76.657,-10 -171.218,-10c-94.56,0 -171.217,4.48 -171.217,10c0,5.52 76.657,9.99 171.217,9.99z" fill="#F5F5F5"/>
</g>
<g id="character-2">
<path id="Vector_281" d="M258.8622,82.0007l-8.76,-3.53c0,0 -11.56,21.08 -14.871,22.15c-4.504,1.44 -13.829,5.47 -19.357,6.18c-0.751,0.88 -1.978,3.63 -1.863,4.62c7.426,2.49 23.745,-0.81 27.242,-3.4c7.957,-5.89 17.609,-26.02 17.609,-26.02z" fill="#E58A7B"/>
<path id="Vector_282" d="M261.5552,77.2107c1.634,6.03 -7.215,18.16 -7.215,18.16l-11.594,-6.5c0,0 2.172,-4.99 4.821,-10.07c4.248,-8.2 12.125,-8.47 13.988,-1.59z" fill="#4CAF4F"/>
<path id="Vector_283" opacity="0.2" d="M261.5552,77.2107c1.634,6.03 -7.215,18.16 -7.215,18.16l-11.594,-6.5c0,0 2.172,-4.99 4.821,-10.07c4.248,-8.2 12.125,-8.47 13.988,-1.59z" fill="black"/>
<path id="Vector_284" opacity="0.2" d="M247.3472,91.4707l4.565,2.56l0.804,-14.02c-2.658,2.04 -4.531,8.19 -5.369,11.46z" fill="black"/>
<path id="Vector_285" d="M253.9252,72.6707c0,0 -9.025,20.08 -3.762,57.47h35.562c0.565,-5.46 -1.307,-32.09 5.466,-57.81c-3.901,-0.76 -7.848,-1.27 -11.816,-1.51c-5.032,-0.29 -10.077,-0.29 -15.109,0c-3.488,0.36 -6.945,0.97 -10.341,1.85z" fill="#4CAF4F"/>
<path id="Vector_286" opacity="0.2" d="M253.9252,72.6707c0,0 -9.025,20.08 -3.762,57.47h35.562c0.565,-5.46 -1.307,-32.09 5.466,-57.81c-3.901,-0.76 -7.848,-1.27 -11.816,-1.51c-5.032,-0.29 -10.077,-0.29 -15.109,0c-3.488,0.36 -6.945,0.97 -10.341,1.85z" fill="black"/>
<g id="Vector_287" style="mix-blend-mode:multiply">
<path d="M245.6772,306.0407c-0.053,0.96 13.432,1.73 30.113,1.73c16.681,0 30.263,-0.77 30.316,-1.73c0.053,-0.95 -13.423,-1.71 -30.113,-1.71c-16.69,0 -30.254,0.77 -30.316,1.71z" fill="#E8ECF1"/>
</g>
<path id="Vector_288" d="M269.4152,280.9807l-6.307,2.45l5.433,14.03l6.307,-2.44z" fill="#E58A7B"/>
<path id="Vector_289" d="M297.5402,299.2507h-6.65l-2.437,-15.39h6.65z" fill="#E58A7B"/>
<path id="Vector_290" d="M290.4312,298.4807h7.471c0.13,0 0.255,0.05 0.353,0.14c0.099,0.08 0.165,0.2 0.186,0.32l0.962,5.91c0.02,0.15 0.009,0.3 -0.035,0.44c-0.043,0.15 -0.116,0.28 -0.215,0.39c-0.099,0.11 -0.221,0.2 -0.358,0.26c-0.136,0.07 -0.284,0.1 -0.434,0.09c-2.605,-0.04 -3.859,-0.2 -7.144,-0.2c-2.022,0 -6.181,0.21 -8.989,0.21c-2.809,0 -2.994,-2.75 -1.837,-3.01c5.192,-1.12 7.206,-2.65 8.936,-4.13c0.306,-0.27 0.698,-0.42 1.104,-0.42z" fill="#263238"/>
<path id="Vector_291" d="M268.3552,296.2107l7.064,-2.07c0.126,-0.04 0.261,-0.03 0.381,0.02c0.121,0.06 0.22,0.15 0.281,0.26l2.65,5.3c0.061,0.14 0.093,0.28 0.092,0.43c-0.001,0.15 -0.034,0.29 -0.097,0.43c-0.063,0.13 -0.155,0.25 -0.268,0.34c-0.114,0.1 -0.247,0.17 -0.39,0.2c-2.569,0.71 -4.291,1.14 -7.506,2.08c-2.216,0.64 -4.477,1.7 -6.667,2.39c-1.519,0.49 -5.086,0.51 -6.932,0.51c-2.729,0 -3.338,-2.88 -2.163,-3.01c2.958,-0.33 3.355,-0.18 4.989,-1c2.673,-1.17 5.096,-2.84 7.135,-4.93c0.385,-0.44 0.878,-0.77 1.431,-0.95z" fill="#263238"/>
<path id="Vector_292" d="M216.9872,106.7607l-7.312,-3.06l-3.011,8.1c2.997,0.46 6.045,0.46 9.042,0z" fill="#E58A7B"/>
<path id="Vector_293" d="M204.2352,103.4907l-0.194,5.38l2.623,2.92l3.011,-8.11z" fill="#E58A7B"/>
<path id="Vector_294" d="M270.2802,282.1807l-6.327,2.44l2.802,7.26l6.327,-2.45z" fill="#CF6F64"/>
<path id="Vector_295" d="M295.1032,283.8607h-6.65l1.263,7.94h6.649z" fill="#CF6F64"/>
<path id="Vector_296" opacity="0.2" d="M249.0332,120.0307c0.133,1.59 0.283,3.23 0.477,4.91l26.439,-8.59c4.129,-1.22 7.717,-3.82 10.173,-7.35c0.106,-2.36 0.238,-4.84 0.441,-7.43c0.089,-1.25 0.195,-2.54 0.31,-3.85c0.114,-1.31 0.273,-2.76 0.441,-4.15z" fill="black"/>
<path id="Vector_297" d="M257.6702,91.0607l-0.884,-0.1c0.521,-4.42 3.815,-7.9 7.286,-7.81v0.88c-3.038,-0.06 -5.934,3.07 -6.402,7.03z" fill="white"/>
<path id="Vector_298" d="M262.3762,99.2107h-0.15v-0.88c3.038,0.11 5.89,-3.06 6.358,-7l0.883,0.1c-0.468,4.32 -3.656,7.78 -7.091,7.78z" fill="white"/>
<path id="Vector_299" d="M278.8812,53.8007c-1.245,4.87 -2.711,13.78 0.494,17.02c0,0 -2.243,4.94 -11.276,4.94c-8.257,0 -3.833,-4.94 -3.833,-4.94c5.493,-1.29 5.59,-5.3 4.866,-9.09z" fill="#E58A7B"/>
<path id="Vector_300" d="M274.9072,57.0407l-5.766,4.69c0.178,0.87 0.282,1.75 0.309,2.64c1.686,1.68 5.068,-2.56 5.413,-4.74c0.175,-0.85 0.19,-1.73 0.044,-2.59z" fill="#CF6F64"/>
<path id="Vector_301" d="M259.2242,53.7407c0.401,0.7 0.941,1.3 1.587,1.78c0.646,0.48 1.383,0.82 2.166,1c2.119,0.46 3.179,-1.49 2.596,-3.45c-0.521,-1.76 -2.261,-4.14 -4.415,-3.73c-0.462,0.09 -0.894,0.3 -1.26,0.59c-0.367,0.3 -0.657,0.68 -0.846,1.11c-0.189,0.43 -0.273,0.9 -0.243,1.37c0.03,0.47 0.172,0.93 0.415,1.33z" fill="#CF6F64"/>
<path id="Vector_302" d="M262.7302,38.1707c-3.303,1.51 -4.469,14.64 -0.318,16.58c4.15,1.94 6.57,-19.45 0.318,-16.58z" fill="#263238"/>
<path id="Vector_303" d="M279.8872,46.4807c-0.794,6.59 -0.883,10.47 -4.415,13.84c-1.094,1.12 -2.477,1.92 -3.995,2.3c-1.518,0.38 -3.112,0.34 -4.607,-0.13c-1.495,-0.46 -2.832,-1.33 -3.863,-2.51c-1.031,-1.18 -1.717,-2.62 -1.982,-4.16c-1.068,-5.92 0.406,-15.69 7.012,-18.32c1.388,-0.61 2.914,-0.84 4.42,-0.66c1.507,0.17 2.939,0.75 4.148,1.67c1.209,0.91 2.151,2.14 2.728,3.54c0.577,1.4 0.769,2.93 0.554,4.43z" fill="#E58A7B"/>
<path id="Vector_304" d="M269.0352,41.5807c4.892,-1.24 8.486,-2.09 7.197,1.98c-1.705,5.44 -3.753,10.7 -1.007,10.94c1.678,0.15 9.095,-2.99 8.151,-6.18c-0.822,-2.77 2.649,-3.53 3.267,-4.94c2.287,-5.08 -4.256,-4.41 -3.091,-7.5c1.166,-3.09 -5.298,-8.07 -8.83,-5.59c-5.749,4.01 -15.613,3.95 -10.429,-2.65c3.717,-4.71 -2.915,-3.74 -2.915,-3.74c0,0 4.01,2.37 -2.737,6.04c-7.135,3.92 -0.592,14.46 10.394,11.64z" fill="#263238"/>
<path id="Vector_305" d="M282.4842,53.7407c-0.966,1.4 -2.417,2.39 -4.071,2.78c-2.181,0.46 -3.02,-1.49 -2.199,-3.45c0.733,-1.76 2.746,-4.14 4.83,-3.73c2.084,0.4 2.561,2.67 1.44,4.4z" fill="#E58A7B"/>
<path id="Vector_306" d="M250.1632,130.1407c0,0 -5.969,53.42 -6.437,73.7c-0.477,21.08 20.231,86.88 20.231,86.88l10.597,-4.41c0,0 -12.363,-60.12 -10.597,-80.83c1.872,-22.58 9.608,-75.31 9.608,-75.31z" fill="#4CAF4F"/>
<path id="Vector_307" opacity="0.2" d="M264.9992,144.8007c-4.76,9.88 -1.554,29.4 1.024,40.97c0.981,-8.17 2.146,-17.03 3.25,-25.24c-0.106,-12.61 -1.086,-22.35 -4.274,-15.73z" fill="black"/>
<path id="Vector_308" d="M274.0862,282.8107c0.053,0 1.254,3.37 1.254,3.37l-12.222,5.14l-1.925,-3.58z" fill="#4CAF4F"/>
<path id="Vector_309" d="M262.7822,130.1407c0,0 4.566,50.81 7.586,69.84c3.32,20.85 16.337,90.28 16.337,90.28h12.177c0,0 -7.294,-67.75 -8.671,-88.39c-1.502,-22.4 -4.486,-71.73 -4.486,-71.73z" fill="#4CAF4F"/>
<path id="Vector_310" d="M299.0682,287.0907c0.053,0 0.406,3.4 0.406,3.4h-13.387l-0.954,-3.9z" fill="#4CAF4F"/>
<path id="Vector_311" opacity="0.2" d="M294.4052,283.0707c-0.028,0 -0.054,-0.01 -0.075,-0.03c-0.022,-0.02 -0.035,-0.04 -0.04,-0.07c-0.07,-0.62 -6.649,-61.82 -7.885,-80.36c-1.343,-20.12 -4.045,-64.74 -4.071,-65.19c-0.002,-0.01 0,-0.03 0.005,-0.04c0.005,-0.02 0.012,-0.03 0.022,-0.04c0.01,-0.01 0.022,-0.02 0.036,-0.02c0.013,-0.01 0.028,-0.01 0.043,-0.01c0.029,0 0.056,0.01 0.078,0.03c0.021,0.02 0.034,0.04 0.036,0.07c0,0.45 2.729,45.04 4.071,65.19c1.237,18.55 7.815,79.7 7.877,80.36c0.003,0.01 0.002,0.03 -0.001,0.04c-0.004,0.02 -0.011,0.03 -0.02,0.04c-0.009,0.02 -0.021,0.02 -0.034,0.03c-0.013,0.01 -0.027,0.01 -0.042,0.01z" fill="black"/>
<path id="Vector_312" d="M269.7852,48.3207c0,0.54 -0.335,0.97 -0.689,0.97c-0.353,0 -0.609,-0.43 -0.574,-0.97c0.036,-0.54 0.336,-0.97 0.689,-0.97c0.353,0 0.61,0.44 0.574,0.97z" fill="#263238"/>
<path id="Vector_313" d="M263.7272,48.3207c0,0.54 -0.344,0.97 -0.688,0.97c-0.345,0 -0.61,-0.43 -0.583,-0.97c0.026,-0.54 0.344,-0.97 0.697,-0.97c0.354,0 0.61,0.44 0.574,0.97z" fill="#263238"/>
<path id="Vector_314" d="M265.6352,48.5907c-0.737,1.65 -1.687,3.19 -2.826,4.59c0.883,0.88 2.534,0.47 2.534,0.47z" fill="#DF5753"/>
<path id="Vector_315" d="M265.7942,55.9107c-0.021,0 -0.041,-0.01 -0.06,-0.02c-0.019,0 -0.036,-0.02 -0.05,-0.03c-0.014,-0.02 -0.025,-0.03 -0.032,-0.05c-0.007,-0.02 -0.01,-0.04 -0.008,-0.06c0.002,-0.05 0.021,-0.09 0.052,-0.12c0.031,-0.03 0.072,-0.04 0.115,-0.04c0.676,0 1.344,-0.14 1.955,-0.43c0.611,-0.29 1.15,-0.71 1.578,-1.23c0.03,-0.03 0.069,-0.04 0.11,-0.04c0.041,0 0.08,0.01 0.11,0.04c0.029,0.03 0.045,0.07 0.045,0.11c0,0.04 -0.016,0.08 -0.045,0.11c-0.457,0.55 -1.033,1 -1.686,1.31c-0.652,0.3 -1.364,0.45 -2.084,0.45z" fill="#263238"/>
<path id="Vector_316" d="M270.8632,46.7007c-0.043,0.02 -0.09,0.03 -0.137,0.03c-0.048,0 -0.095,-0.01 -0.137,-0.03c-0.331,-0.22 -0.706,-0.35 -1.098,-0.39c-0.391,-0.04 -0.786,0.01 -1.154,0.15c-0.036,0.02 -0.075,0.03 -0.115,0.03c-0.04,0 -0.08,0 -0.118,-0.02c-0.038,-0.01 -0.073,-0.03 -0.102,-0.06c-0.03,-0.03 -0.054,-0.06 -0.071,-0.09c-0.033,-0.08 -0.034,-0.17 -0.002,-0.25c0.031,-0.08 0.092,-0.14 0.17,-0.18c0.461,-0.19 0.962,-0.26 1.458,-0.21c0.497,0.04 0.975,0.21 1.394,0.48c0.034,0.02 0.063,0.05 0.085,0.08c0.022,0.04 0.038,0.08 0.045,0.12c0.007,0.04 0.007,0.08 -0.002,0.12c-0.009,0.04 -0.025,0.08 -0.049,0.11c-0.044,0.05 -0.103,0.09 -0.167,0.11z" fill="#263238"/>
<path id="Vector_317" d="M261.3872,44.9307c-0.047,-0.01 -0.09,-0.04 -0.123,-0.07c-0.03,-0.03 -0.053,-0.06 -0.069,-0.1c-0.016,-0.04 -0.024,-0.08 -0.024,-0.12c0,-0.04 0.008,-0.08 0.024,-0.12c0.016,-0.04 0.039,-0.07 0.069,-0.1c0.338,-0.38 0.76,-0.68 1.231,-0.87c0.472,-0.19 0.981,-0.27 1.488,-0.23c0.041,0.01 0.08,0.02 0.115,0.05c0.035,0.02 0.064,0.05 0.088,0.08c0.023,0.03 0.039,0.07 0.047,0.11c0.007,0.04 0.007,0.08 -0.002,0.12c-0.019,0.09 -0.067,0.16 -0.136,0.21c-0.068,0.05 -0.152,0.07 -0.235,0.06c-0.401,-0.03 -0.803,0.04 -1.175,0.19c-0.372,0.16 -0.704,0.39 -0.971,0.69c-0.04,0.05 -0.092,0.08 -0.15,0.1c-0.057,0.01 -0.119,0.02 -0.177,0z" fill="#263238"/>
<path id="Vector_318" d="M294.6082,81.0207l-9.184,-2.45c0,0 -9.007,22.18 -12.195,23.62c-4.327,1.98 -15.286,8.83 -19.948,12.07c-0.256,1.1 -0.053,4.03 0.53,4.83c7.947,-1.45 23.162,-7.3 26.341,-10.28c7.25,-6.79 14.456,-27.79 14.456,-27.79z" fill="#E58A7B"/>
<path id="Vector_319" d="M288.1972,299.6507c-0.448,0.04 -0.895,-0.09 -1.263,-0.34c-0.113,-0.11 -0.198,-0.24 -0.246,-0.38c-0.048,-0.15 -0.058,-0.3 -0.027,-0.45c0.005,-0.1 0.036,-0.19 0.089,-0.27c0.053,-0.07 0.126,-0.14 0.211,-0.18c0.742,-0.38 2.817,0.94 3.055,1.09c0.026,0.02 0.047,0.04 0.058,0.07c0.011,0.03 0.012,0.06 0.004,0.09c-0.007,0.03 -0.023,0.06 -0.044,0.08c-0.022,0.02 -0.049,0.04 -0.08,0.05c-0.575,0.14 -1.164,0.22 -1.757,0.24zM287.3142,298.2707c-0.067,-0.01 -0.136,-0.01 -0.203,0c-0.034,0.02 -0.062,0.05 -0.081,0.08c-0.019,0.03 -0.027,0.07 -0.025,0.11c-0.024,0.1 -0.02,0.21 0.011,0.31c0.031,0.1 0.088,0.19 0.166,0.26c0.344,0.31 1.209,0.35 2.349,0.13c-0.679,-0.45 -1.443,-0.75 -2.243,-0.89z" fill="#4CAF4F"/>
<path id="Vector_320" d="M289.9102,299.4107c-0.023,0.01 -0.047,0.01 -0.07,0c-0.663,-0.37 -1.908,-1.83 -1.722,-2.57c0.027,-0.12 0.094,-0.22 0.188,-0.3c0.095,-0.07 0.212,-0.11 0.333,-0.11c0.118,-0.02 0.239,-0.01 0.353,0.03c0.114,0.03 0.22,0.09 0.309,0.17c0.733,0.63 0.777,2.55 0.777,2.65c0.004,0.03 -0.001,0.06 -0.016,0.08c-0.014,0.03 -0.036,0.05 -0.063,0.06c-0.03,0.01 -0.061,0 -0.089,-0.01zM288.7272,296.7207h-0.062c-0.203,0 -0.229,0.11 -0.238,0.16c-0.106,0.43 0.68,1.53 1.333,2.05c-0.003,-0.74 -0.234,-1.47 -0.662,-2.08c-0.103,-0.09 -0.235,-0.14 -0.371,-0.13z" fill="#4CAF4F"/>
<path id="Vector_321" d="M264.7522,298.5507c-0.541,0.18 -1.129,0.18 -1.669,0c-0.123,-0.07 -0.227,-0.17 -0.303,-0.28c-0.075,-0.12 -0.12,-0.26 -0.13,-0.39c-0.011,-0.09 0,-0.18 0.032,-0.26c0.033,-0.08 0.086,-0.16 0.153,-0.21c0.707,-0.64 3.595,0 3.921,0.12c0.031,0.01 0.059,0.03 0.078,0.05c0.019,0.03 0.029,0.06 0.028,0.09c0.002,0.04 -0.007,0.07 -0.024,0.1c-0.018,0.02 -0.043,0.05 -0.073,0.06c-0.65,0.29 -1.324,0.53 -2.013,0.72zM263.3122,297.5007c-0.101,0.02 -0.195,0.06 -0.273,0.13c-0.029,0.02 -0.05,0.05 -0.063,0.08c-0.012,0.03 -0.015,0.07 -0.008,0.1c0.006,0.1 0.035,0.19 0.084,0.26c0.049,0.08 0.118,0.15 0.198,0.19c0.469,0.25 1.555,0.06 2.959,-0.54c-0.946,-0.23 -1.925,-0.31 -2.897,-0.22z" fill="#4CAF4F"/>
<path id="Vector_322" d="M266.7392,297.8307h-0.071c-0.883,-0.16 -2.649,-1.17 -2.702,-1.93c0,-0.18 0.079,-0.43 0.503,-0.57c0.143,-0.05 0.295,-0.07 0.447,-0.06c0.152,0.01 0.3,0.05 0.436,0.11c0.954,0.47 1.457,2.17 1.484,2.25c0.006,0.02 0.005,0.05 -0.003,0.08c-0.007,0.02 -0.022,0.05 -0.041,0.07c-0.014,0.02 -0.032,0.04 -0.053,0.05zM264.6462,295.6007h-0.089c-0.273,0.09 -0.273,0.21 -0.273,0.24c0,0.46 1.28,1.3 2.172,1.58c-0.205,-0.7 -0.64,-1.33 -1.236,-1.76c-0.178,-0.09 -0.382,-0.11 -0.574,-0.06z" fill="#4CAF4F"/>
<path id="Vector_323" d="M254.0312,113.7407l-9.21,4.24l-1.069,2.65l3.4,2.28c0,0 6.358,-0.69 8.169,-4.77z" fill="#E58A7B"/>
<path id="Vector_324" d="M254.4202,119.2407c-0.206,-1.77 -0.79,-3.47 -1.713,-5l1.457,-1.09c1.096,1.75 1.795,3.73 2.049,5.78z" fill="#263238"/>
<path id="Vector_325" d="M255.9922,114.9907c0.194,0.31 0.29,0.67 0.274,1.03c-0.017,0.36 -0.145,0.71 -0.366,1c-0.222,0.29 -0.527,0.5 -0.873,0.61c-0.346,0.1 -0.718,0.1 -1.063,-0.01c-0.346,-0.11 -0.649,-0.32 -0.869,-0.61c-0.219,-0.29 -0.345,-0.64 -0.359,-1c-0.013,-0.37 0.085,-0.72 0.282,-1.03c0.197,-0.3 0.483,-0.54 0.819,-0.68c0.377,-0.19 0.816,-0.22 1.219,-0.1c0.404,0.13 0.74,0.42 0.936,0.79z" fill="#263238"/>
<path id="Vector_326" d="M238.5952,121.4007l1.228,1.24l8.265,-3.53l-3.267,-1.13z" fill="#E58A7B"/>
<path id="Vector_327" opacity="0.2" d="M274.0862,282.8107c0.053,0 1.254,3.37 1.254,3.37l-12.222,5.14l-1.925,-3.58z" fill="black"/>
<path id="Vector_328" opacity="0.2" d="M299.0682,287.0907c0.053,0 0.406,3.4 0.406,3.4h-13.387l-0.954,-3.9z" fill="black"/>
<path id="Vector_329" d="M297.0012,78.4807c2.429,7.83 -7.064,18.54 -7.064,18.54l-13.114,-5.35c1.555,-4.53 3.347,-8.97 5.369,-13.31c4.027,-8.68 12.354,-7.79 14.809,0.12z" fill="#4CAF4F"/>
<path id="Vector_330" opacity="0.2" d="M297.0012,78.4807c2.429,7.83 -7.064,18.54 -7.064,18.54l-13.114,-5.35c1.555,-4.53 3.347,-8.97 5.369,-13.31c4.027,-8.68 12.354,-7.79 14.809,0.12z" fill="black"/>
</g>
<g id="Screen">
<path id="Vector_331" d="M166.6962,0.0007h-5.643v0.91h5.643z" fill="#4CAF4F"/>
<path id="Vector_332" d="M239.7422,36.0007l-0.683,15.15l0.908,0.05l0.683,-15.16z" fill="#4CAF4F"/>
<path id="Vector_333" d="M237.9862,4.0807h-104.202l-9.696,216.99h104.202z" fill="#4CAF4F"/>
<path id="Vector_334" opacity="0.56" d="M234.8782,7.0607h-104.202l-9.696,216.99h104.202z" fill="#FAFAFA"/>
<path id="Vector_335" opacity="0.07" d="M231.7692,10.0407h-104.201l-9.705,216.99h104.201z" fill="#4CAF4F"/>
<path id="Vector_336" d="M219.9102,104.6807h-88.943l-0.741,16.6h88.942z" fill="white"/>
<path id="Vector_337" d="M179.8802,92.5607h-48.374l-0.327,7.43h48.375z" fill="#4CAF4F"/>
<path id="Vector_338" d="M217.9052,149.4807h-88.942l-0.742,16.61h88.942z" fill="white"/>
<path id="Vector_339" opacity="0.47" d="M201.5952,188.5107h-59.81l-0.892,19.89h59.81z" fill="#4CAF4F"/>
<path id="Vector_340" d="M197.5952,211.4907h-59.81c-0.026,0.01 -0.054,0.01 -0.08,0c-0.009,-0.02 -0.009,-0.05 0,-0.08l0.883,-19.9c0,-0.01 0.003,-0.03 0.008,-0.04c0.006,-0.01 0.014,-0.02 0.024,-0.03c0.01,-0.01 0.021,-0.02 0.034,-0.02c0.013,-0.01 0.027,-0.01 0.04,-0.01h59.81c0.011,0 0.023,-0.01 0.036,-0.01c0.012,0 0.024,0.01 0.035,0.01c0.006,0.01 0.009,0.03 0.009,0.04c0,0.01 -0.003,0.02 -0.009,0.03l-0.866,19.95c-0.01,0.02 -0.027,0.04 -0.047,0.05c-0.021,0.01 -0.044,0.02 -0.067,0.01zM137.8912,211.2807h59.598l0.883,-19.69h-59.598z" fill="white"/>
<path id="Vector_341" d="M169.4342,137.3707h-39.933l-0.326,7.43h39.923z" fill="#4CAF4F"/>
<path id="Vector_342" d="M200.4562,51.0507c-0.229,4.83 -1.947,9.47 -4.919,13.29c-2.2,2.88 -5.032,5.22 -8.277,6.84c-3.245,1.62 -6.818,2.47 -10.444,2.49c-2.93,0.03 -5.834,-0.55 -8.533,-1.69c-2.698,-1.15 -5.134,-2.83 -7.158,-4.95c-2.023,-2.12 -3.591,-4.63 -4.608,-7.38c-1.016,-2.75 -1.459,-5.67 -1.301,-8.6c0.311,-6.07 2.929,-11.8 7.32,-16c4.391,-4.21 10.223,-6.58 16.302,-6.62c2.933,-0.03 5.84,0.54 8.542,1.68c2.701,1.14 5.141,2.83 7.167,4.95c2.026,2.12 3.595,4.63 4.612,7.38c1.016,2.75 1.457,5.68 1.297,8.61z" fill="white"/>
<path id="Vector_343" d="M202.5842,33.1607c-0.058,1.28 -0.515,2.52 -1.307,3.53c-0.586,0.77 -1.34,1.39 -2.203,1.82c-0.863,0.43 -1.813,0.66 -2.777,0.66c-0.935,0.01 -1.856,-0.22 -2.684,-0.65c-0.829,-0.43 -1.538,-1.06 -2.067,-1.83c-0.701,-1.04 -1.048,-2.28 -0.989,-3.53c0.085,-1.61 0.782,-3.13 1.949,-4.25c1.166,-1.11 2.715,-1.74 4.329,-1.76c0.779,0 1.551,0.15 2.269,0.45c0.717,0.3 1.365,0.75 1.904,1.31c0.539,0.57 0.956,1.23 1.227,1.96c0.271,0.73 0.39,1.51 0.349,2.29z" fill="#4CAF4F"/>
<path id="Vector_344" d="M140.5492,112.9807c-0.043,0.71 -0.353,1.38 -0.87,1.87c-0.516,0.49 -1.199,0.77 -1.912,0.78c-0.344,0 -0.686,-0.06 -1.003,-0.2c-0.318,-0.13 -0.604,-0.33 -0.843,-0.58c-0.238,-0.24 -0.423,-0.54 -0.543,-0.86c-0.12,-0.32 -0.172,-0.67 -0.154,-1.01c0.038,-0.71 0.347,-1.39 0.864,-1.88c0.517,-0.49 1.203,-0.77 1.917,-0.77c0.344,0 0.685,0.06 1.002,0.2c0.317,0.13 0.603,0.33 0.841,0.58c0.238,0.24 0.423,0.54 0.543,0.86c0.121,0.32 0.174,0.67 0.158,1.01z" fill="#263238"/>
<path id="Vector_345" d="M152.4522,112.9807c-0.04,0.71 -0.35,1.38 -0.867,1.87c-0.516,0.5 -1.201,0.77 -1.914,0.78c-0.344,0 -0.684,-0.07 -1.001,-0.2c-0.316,-0.13 -0.602,-0.33 -0.839,-0.58c-0.237,-0.25 -0.422,-0.54 -0.541,-0.86c-0.12,-0.33 -0.172,-0.67 -0.154,-1.01c0.038,-0.71 0.347,-1.38 0.862,-1.88c0.515,-0.49 1.199,-0.76 1.911,-0.77c0.344,0 0.686,0.06 1.003,0.2c0.317,0.13 0.604,0.32 0.843,0.57c0.238,0.25 0.423,0.55 0.543,0.87c0.12,0.32 0.172,0.67 0.154,1.01z" fill="#263238"/>
<path id="Vector_346" d="M164.3652,112.9807c-0.041,0.71 -0.351,1.38 -0.867,1.87c-0.517,0.5 -1.201,0.77 -1.915,0.78c-0.344,0 -0.684,-0.07 -1.001,-0.2c-0.317,-0.13 -0.603,-0.33 -0.841,-0.58c-0.239,-0.25 -0.423,-0.54 -0.544,-0.86c-0.12,-0.32 -0.174,-0.67 -0.157,-1.01c0.04,-0.71 0.35,-1.38 0.867,-1.88c0.517,-0.49 1.201,-0.76 1.915,-0.77c0.344,0 0.685,0.06 1.003,0.2c0.317,0.13 0.604,0.32 0.842,0.57c0.239,0.25 0.423,0.55 0.543,0.87c0.12,0.32 0.173,0.67 0.155,1.01z" fill="#263238"/>
<path id="Vector_347" d="M138.5442,157.7907c-0.042,0.71 -0.353,1.38 -0.869,1.87c-0.516,0.49 -1.2,0.77 -1.913,0.77c-0.343,0.01 -0.684,-0.06 -1.001,-0.19c-0.317,-0.14 -0.603,-0.33 -0.841,-0.58c-0.238,-0.25 -0.423,-0.54 -0.544,-0.87c-0.12,-0.32 -0.174,-0.66 -0.157,-1c0.04,-0.72 0.35,-1.39 0.867,-1.88c0.517,-0.49 1.201,-0.77 1.915,-0.77c0.344,-0.01 0.684,0.06 1.001,0.19c0.317,0.14 0.603,0.33 0.841,0.58c0.238,0.25 0.423,0.54 0.544,0.87c0.12,0.32 0.174,0.66 0.157,1.01z" fill="#263238"/>
<path id="Vector_348" d="M150.4482,157.7907c-0.041,0.71 -0.349,1.38 -0.864,1.87c-0.515,0.49 -1.197,0.77 -1.909,0.77c-0.344,0.01 -0.686,-0.06 -1.003,-0.19c-0.317,-0.13 -0.604,-0.33 -0.843,-0.58c-0.238,-0.25 -0.423,-0.54 -0.543,-0.86c-0.12,-0.33 -0.172,-0.67 -0.154,-1.01c0.04,-0.72 0.35,-1.39 0.867,-1.88c0.516,-0.49 1.201,-0.77 1.914,-0.77c0.344,-0.01 0.684,0.06 1.001,0.19c0.316,0.14 0.602,0.34 0.839,0.58c0.237,0.25 0.422,0.55 0.541,0.87c0.12,0.32 0.172,0.66 0.154,1.01z" fill="#263238"/>
<path id="Vector_349" d="M162.3872,157.7907c-0.041,0.71 -0.351,1.38 -0.867,1.87c-0.517,0.49 -1.201,0.77 -1.915,0.77c-0.343,0.01 -0.684,-0.06 -1,-0.2c-0.316,-0.13 -0.602,-0.33 -0.84,-0.57c-0.237,-0.25 -0.422,-0.55 -0.543,-0.87c-0.121,-0.32 -0.176,-0.66 -0.16,-1c0.042,-0.72 0.353,-1.39 0.869,-1.88c0.516,-0.49 1.2,-0.77 1.913,-0.77c0.344,-0.01 0.685,0.06 1.002,0.19c0.318,0.13 0.605,0.33 0.843,0.58c0.238,0.25 0.423,0.54 0.543,0.87c0.12,0.32 0.173,0.66 0.155,1.01z" fill="#263238"/>
<path id="Vector_350" d="M174.2732,157.7907c-0.043,0.71 -0.353,1.38 -0.869,1.87c-0.517,0.49 -1.2,0.77 -1.913,0.77c-0.343,0.01 -0.683,-0.06 -1,-0.2c-0.316,-0.13 -0.602,-0.33 -0.839,-0.57c-0.238,-0.25 -0.423,-0.55 -0.544,-0.87c-0.121,-0.32 -0.176,-0.66 -0.16,-1c0.042,-0.72 0.353,-1.39 0.869,-1.88c0.516,-0.49 1.2,-0.77 1.913,-0.77c0.343,-0.01 0.684,0.06 1.001,0.19c0.317,0.14 0.603,0.33 0.841,0.58c0.238,0.25 0.423,0.54 0.544,0.87c0.12,0.32 0.174,0.66 0.157,1.01z" fill="#263238"/>
<path id="Vector_351" d="M186.2302,157.7907c-0.043,0.71 -0.353,1.38 -0.87,1.87c-0.516,0.49 -1.199,0.77 -1.912,0.77c-0.344,0.01 -0.686,-0.06 -1.003,-0.19c-0.317,-0.13 -0.604,-0.33 -0.843,-0.58c-0.238,-0.25 -0.423,-0.54 -0.543,-0.86c-0.12,-0.33 -0.172,-0.67 -0.154,-1.01c0.04,-0.72 0.35,-1.39 0.867,-1.88c0.516,-0.49 1.201,-0.77 1.914,-0.77c0.344,-0.01 0.685,0.06 1.002,0.19c0.317,0.14 0.603,0.33 0.841,0.58c0.238,0.25 0.423,0.54 0.543,0.87c0.121,0.32 0.174,0.66 0.158,1.01z" fill="#263238"/>
<path id="Vector_352" d="M184.4222,49.8707c3.696,-3.61 3.893,-9.41 0.438,-12.94c-3.454,-3.53 -9.25,-3.46 -12.946,0.15c-3.697,3.61 -3.893,9.41 -0.438,12.94c3.454,3.53 9.25,3.47 12.946,-0.15z" fill="#4CAF4F"/>
<path id="Vector_353" d="M195.5372,64.3407c-2.2,2.88 -5.032,5.22 -8.277,6.84c-3.245,1.62 -6.818,2.47 -10.444,2.49c-3.516,0.03 -6.986,-0.8 -10.103,-2.43c-3.117,-1.63 -5.785,-4 -7.77,-6.9c4.292,-4.27 11.082,-7.07 18.606,-7.07c7.524,0 14.076,2.8 17.988,7.07z" fill="#4CAF4F"/>
<path id="Vector_354" opacity="0.1" d="M184.4222,49.8707c3.696,-3.61 3.893,-9.41 0.438,-12.94c-3.454,-3.53 -9.25,-3.46 -12.946,0.15c-3.697,3.61 -3.893,9.41 -0.438,12.94c3.454,3.53 9.25,3.47 12.946,-0.15z" fill="white"/>
<path id="Vector_355" opacity="0.1" d="M195.5372,64.3407c-2.2,2.88 -5.032,5.22 -8.277,6.84c-3.245,1.62 -6.818,2.47 -10.444,2.49c-3.516,0.03 -6.986,-0.8 -10.103,-2.43c-3.117,-1.63 -5.785,-4 -7.77,-6.9c4.292,-4.27 11.082,-7.07 18.606,-7.07c7.524,0 14.076,2.8 17.988,7.07z" fill="white"/>
</g>
<g id="character-1">
<path id="Vector_356" d="M65.6122,125.2807c-0.839,1.84 -1.722,3.86 -2.491,5.82c-0.768,1.96 -1.554,3.98 -2.234,6c-1.388,3.96 -2.446,8.04 -3.161,12.18l-0.194,1.3c-0.019,0.22 0.002,0.45 0.061,0.66c0.209,0.73 0.537,1.43 0.972,2.05c1.134,1.62 2.449,3.1 3.921,4.42c1.551,1.44 3.178,2.8 4.874,4.07c1.696,1.3 3.479,2.58 5.237,3.78l-1.652,3.1c-4.196,-1.83 -8.179,-4.12 -11.877,-6.81c-1.973,-1.44 -3.754,-3.13 -5.298,-5.02c-0.916,-1.12 -1.63,-2.4 -2.111,-3.77c-0.279,-0.85 -0.422,-1.75 -0.424,-2.65c0,-0.21 0,-0.52 0,-0.67v-0.43l0.089,-0.88c0.506,-4.61 1.473,-9.14 2.887,-13.55c0.689,-2.17 1.422,-4.34 2.261,-6.45c0.839,-2.11 1.704,-4.17 2.773,-6.32z" fill="#E58A7B"/>
<path id="Vector_357" d="M71.3522,165.0107l6.243,-3.16l-1.616,6.85c0,0 -4.283,1.2 -6.27,-0.88z" fill="#E58A7B"/>
<path id="Vector_358" d="M83.3082,162.9707l-1.66,5.67l-5.669,0.06l1.616,-6.85z" fill="#E58A7B"/>
<path id="Vector_359" d="M92.1212,92.2207c0.334,1.22 0.799,2.41 1.387,3.53c-0.172,0.19 -0.393,0.34 -0.64,0.42c-0.248,0.08 -0.512,0.09 -0.764,0.03z" fill="#DF5753"/>
<path id="Vector_360" d="M91.9362,92.2707c0.366,0 0.662,-0.45 0.662,-1.01c0,-0.57 -0.296,-1.02 -0.662,-1.02c-0.366,0 -0.662,0.45 -0.662,1.02c0,0.56 0.296,1.01 0.662,1.01z" fill="#263238"/>
<path id="Vector_361" d="M91.7422,90.2807l1.342,-0.38c0,0 -0.654,1.04 -1.342,0.38z" fill="#263238"/>
<path id="Vector_362" d="M74.8752,98.7007c0.804,4.11 1.607,11.64 -1.272,14.38c0,0 1.131,4.17 8.769,4.17c8.398,0 4.009,-4.17 4.009,-4.17c-4.583,-1.09 -4.468,-4.49 -3.664,-7.69z" fill="#E58A7B"/>
<path id="Vector_363" d="M72.6412,89.3407c0.424,6.86 0.459,9.77 3.921,13.3c5.219,5.3 13.555,3.28 15.188,-3.53c1.475,-6.19 0.539,-16.36 -6.181,-19.09c-1.475,-0.6 -3.081,-0.83 -4.665,-0.64c-1.585,0.19 -3.096,0.77 -4.39,1.71c-1.294,0.93 -2.329,2.18 -3.007,3.62c-0.678,1.44 -0.976,3.04 -0.866,4.63z" fill="#E58A7B"/>
<path id="Vector_364" d="M73.3212,81.6207c-3.444,1.26 -8.036,0.32 -6.235,10.94c1.908,11.25 -1.024,14.95 -1.024,14.95c0,0 13.061,2.78 26.395,-0.17c0,0 -4.071,-7.11 -2.932,-12.36c1.457,-6.62 0.309,-9.07 0.309,-9.07c0,0 -11.674,-6.06 -16.513,-4.29z" fill="#263238"/>
<path id="Vector_365" d="M87.8912,92.9207c0.004,1.3 0.378,2.58 1.078,3.68c0.936,1.43 2.04,0.88 2.313,-0.64c0.248,-1.33 0.062,-3.69 -1.13,-4.61c-1.192,-0.92 -2.243,-0.02 -2.261,1.57z" fill="#E58A7B"/>
<path id="Vector_366" d="M70.3272,82.7807c-0.989,-2.78 3.727,-7.07 13.705,-5.3c9.979,1.77 10.412,10.08 10.412,10.08l-2.014,-2.41l0.089,2.53l-10.253,1.97z" fill="#263238"/>
<path id="Vector_367" d="M71.1752,113.5507c-0.059,-0.4 0.042,-0.81 0.281,-1.14c0.239,-0.33 0.598,-0.55 0.999,-0.62c3.109,-0.52 10.173,-1.56 13.723,-1.06c2.649,0.37 3.338,1.9 3.453,3.17c0.018,0.22 -0.012,0.44 -0.087,0.65c-0.075,0.21 -0.194,0.4 -0.349,0.56c-0.154,0.16 -0.341,0.28 -0.548,0.36c-0.207,0.08 -0.428,0.12 -0.65,0.1l-15.347,-0.68c-0.362,-0.02 -0.707,-0.16 -0.975,-0.41c-0.269,-0.24 -0.446,-0.57 -0.5,-0.93z" fill="#4CAF4F"/>
<path id="Vector_368" opacity="0.6" d="M71.1752,113.5507c-0.059,-0.4 0.042,-0.81 0.281,-1.14c0.239,-0.33 0.598,-0.55 0.999,-0.62c3.109,-0.52 10.173,-1.56 13.723,-1.06c2.649,0.37 3.338,1.9 3.453,3.17c0.018,0.22 -0.012,0.44 -0.087,0.65c-0.075,0.21 -0.194,0.4 -0.349,0.56c-0.154,0.16 -0.341,0.28 -0.548,0.36c-0.207,0.08 -0.428,0.12 -0.65,0.1l-15.347,-0.68c-0.362,-0.02 -0.707,-0.16 -0.975,-0.41c-0.269,-0.24 -0.446,-0.57 -0.5,-0.93z" fill="black"/>
<path id="Vector_369" d="M80.0502,267.8207l5.696,3.96l9.528,-12.92l-5.696,-3.95z" fill="#E58A7B"/>
<path id="Vector_370" d="M66.7682,267.5707l6.014,3.42l8.433,-13.66l-6.013,-3.42z" fill="#E58A7B"/>
<path id="Vector_371" d="M95.2652,258.8607l-4.91,6.66l-5.696,-3.95l4.91,-6.66z" fill="#CF6F64"/>
<path id="Vector_372" d="M75.1932,253.9107l6.022,3.43l-4.344,7.04l-6.023,-3.43z" fill="#CF6F64"/>
<path id="Vector_373" d="M84.8542,156.6807c0,0 22.235,28.02 18.058,54.82c-3.364,21.65 -22.88,50.96 -22.88,50.96l-9.175,-4.56c6.467,-12.96 11.986,-26.37 16.513,-40.13c1.396,-4.27 1.804,-8.8 1.192,-13.25c-0.612,-4.45 -2.227,-8.71 -4.724,-12.45c-11.268,-16.45 -29.318,-6.65 -17.176,-35.39z" fill="#4CAF4F"/>
<path id="Vector_374" opacity="0.6" d="M84.8542,156.6807c0,0 22.235,28.02 18.058,54.82c-3.364,21.65 -22.88,50.96 -22.88,50.96l-9.175,-4.56c6.467,-12.96 11.986,-26.37 16.513,-40.13c1.396,-4.27 1.804,-8.8 1.192,-13.25c-0.612,-4.45 -2.227,-8.71 -4.724,-12.45c-11.268,-16.45 -29.318,-6.65 -17.176,-35.39z" fill="black"/>
<path id="Vector_375" opacity="0.4" d="M95.7602,174.6807l-3.233,-3.22c0,0.26 6.261,38.91 8.019,49.77c1.037,-3.17 1.831,-6.42 2.375,-9.71c2.067,-13.15 -2.252,-26.58 -7.161,-36.84z" fill="black"/>
<path id="Vector_376" d="M94.7792,156.6807c0,0 26.775,35.22 27.534,56.33c0.627,17.66 -29.141,51.88 -29.141,51.88l-8.654,-5.6c0,0 17.423,-24.3 21.812,-44.15c-1.696,-19.67 -37.548,-58.46 -37.548,-58.46z" fill="#4CAF4F"/>
<path id="Vector_377" opacity="0.6" d="M94.7792,156.6807c0,0 26.775,35.22 27.534,56.33c0.627,17.66 -29.141,51.88 -29.141,51.88l-8.654,-5.6c0,0 17.423,-24.3 21.812,-44.15c-1.696,-19.67 -37.548,-58.46 -37.548,-58.46z" fill="black"/>
<path id="Vector_378" d="M61.6552,114.6607c-2.861,0.68 -5.607,11.08 -5.607,11.08l11.188,7.47c0,0 3.727,-8.23 2.42,-11.83c-1.351,-3.76 -4.406,-7.58 -8.001,-6.72z" fill="#4CAF4F"/>
<path id="Vector_379" opacity="0.2" d="M63.8452,121.3607l-0.777,9.07l4.16,2.79c1.148,-2.59 1.998,-5.29 2.534,-8.07z" fill="black"/>
<path id="Vector_380" d="M98.0912,114.8607c0,0 3.302,1.16 -3.312,41.81h-28.134c0.477,-11.48 0.485,-18.54 -4.99,-42.01c3.94,-0.82 7.933,-1.34 11.948,-1.58c4.254,-0.3 8.524,-0.3 12.778,0c5.493,0.51 11.71,1.78 11.71,1.78z" fill="#4CAF4F"/>
<path id="Vector_381" d="M100.9522,121.3607c0.636,1.77 1.307,3.66 2.013,5.49c0.707,1.83 1.378,3.71 2.093,5.56l2.164,5.55l0.547,1.39l0.283,0.69l0.132,0.34c0,0.06 0,0.06 0,0.05c-0.161,-0.22 -0.373,-0.41 -0.618,-0.54c-0.349,-0.21 -0.743,-0.33 -1.148,-0.35c-0.336,-0.01 -0.671,0.05 -0.98,0.19c-0.406,0.18 -0.406,0.26 -0.398,0.25c0.074,-0.06 0.139,-0.12 0.195,-0.2c0.489,-0.64 0.912,-1.33 1.263,-2.06c0.415,-0.81 0.812,-1.68 1.209,-2.55c0.777,-1.77 1.493,-3.59 2.208,-5.44c0.715,-1.85 1.395,-3.71 2.058,-5.59l2.013,-5.63l3.4,0.88c-0.671,4.03 -1.537,7.95 -2.579,11.94c-0.503,1.99 -1.095,3.95 -1.766,5.94c-0.336,1 -0.706,1.99 -1.13,3c-0.442,1.11 -0.986,2.16 -1.625,3.17c-0.235,0.33 -0.495,0.65 -0.777,0.95c-0.451,0.49 -0.998,0.87 -1.607,1.14c-0.541,0.23 -1.126,0.34 -1.714,0.32c-0.658,-0.03 -1.299,-0.22 -1.863,-0.56c-0.665,-0.42 -1.217,-0.99 -1.607,-1.67c-0.132,-0.23 -0.247,-0.46 -0.327,-0.63l-0.168,-0.33l-0.335,-0.69l-0.671,-1.37c-0.883,-1.84 -1.766,-3.69 -2.535,-5.55c-0.768,-1.87 -1.58,-3.76 -2.34,-5.66c-0.759,-1.89 -1.439,-3.79 -2.084,-5.84z" fill="#E58A7B"/>
<path id="Vector_382" d="M98.0912,114.8607c3.382,0.8 7.188,10.8 7.188,10.8l-10.058,8.56c0,0 -6.508,-10.9 -5.193,-14.49c1.369,-3.75 3.647,-5.92 8.063,-4.87z" fill="#4CAF4F"/>
<path id="Vector_383" d="M115.5842,115.3507l3.533,-2.95l2.455,3.82l-1.811,3.19c0,0 -2.879,2.65 -5.422,1.3c-0.403,-0.91 -0.5,-1.93 -0.276,-2.89c0.225,-0.97 0.759,-1.84 1.521,-2.47z" fill="#E58A7B"/>
<path id="Vector_384" d="M125.4922,112.4007l-0.265,0.97l-5.589,0.93l-0.548,-1.9z" fill="#E58A7B"/>
<path id="Vector_385" d="M93.8612,265.3407l-10.085,-6.51l1.811,-3.15l11.329,6.97z" fill="#4CAF4F"/>
<path id="Vector_386" d="M76.7292,270.5407c-0.884,-0.11 -1.735,-0.41 -2.49,-0.89c-0.031,-0.01 -0.058,-0.03 -0.077,-0.06c-0.019,-0.02 -0.03,-0.05 -0.03,-0.09c0,-0.03 0.011,-0.06 0.03,-0.09c0.019,-0.03 0.046,-0.05 0.077,-0.06c0.274,-0.09 2.649,-0.82 3.338,-0.25c0.078,0.06 0.136,0.14 0.171,0.24c0.034,0.09 0.042,0.2 0.023,0.29c-0.012,0.16 -0.065,0.32 -0.153,0.45c-0.088,0.13 -0.208,0.24 -0.35,0.31c-0.165,0.09 -0.35,0.14 -0.539,0.15zM74.7432,269.5607c1.103,0.57 1.986,0.77 2.41,0.56c0.093,-0.05 0.17,-0.12 0.226,-0.21c0.056,-0.09 0.087,-0.2 0.092,-0.3c0,-0.14 0,-0.2 -0.079,-0.24c-0.371,-0.3 -1.696,-0.07 -2.667,0.19z" fill="#263238"/>
<path id="Vector_387" d="M74.3012,269.7107c-0.047,0 -0.091,-0.02 -0.124,-0.05c-0.013,-0.02 -0.02,-0.05 -0.02,-0.08c0,-0.03 0.007,-0.05 0.02,-0.08c0,-0.08 0.574,-1.99 1.475,-2.43c0.115,-0.05 0.24,-0.08 0.367,-0.08c0.126,0 0.251,0.03 0.366,0.08c0.124,0.04 0.231,0.12 0.305,0.23c0.074,0.11 0.109,0.24 0.101,0.37c-0.062,0.79 -1.678,1.89 -2.419,2.07zM76.0142,267.3007c-0.086,0.01 -0.17,0.03 -0.247,0.07c-0.548,0.26 -0.998,1.29 -1.219,1.92c0.777,-0.33 1.846,-1.19 1.881,-1.68c0,-0.08 0,-0.17 -0.203,-0.26c-0.066,-0.04 -0.138,-0.06 -0.212,-0.07z" fill="#263238"/>
<path id="Vector_388" d="M89.3312,274.3507c-0.998,0 -2.385,-1.28 -3.144,-2.07c-0.019,-0.02 -0.03,-0.06 -0.03,-0.09c0,-0.03 0.011,-0.06 0.03,-0.09c0.017,-0.03 0.042,-0.05 0.072,-0.07c0.029,-0.01 0.062,-0.02 0.096,-0.02c0.353,0 3.417,0.46 3.85,1.32c0.046,0.08 0.07,0.17 0.07,0.26c0,0.09 -0.024,0.18 -0.07,0.26c-0.065,0.13 -0.163,0.25 -0.285,0.33c-0.122,0.09 -0.264,0.14 -0.413,0.16zM86.7702,272.4107c1.112,1.07 2.093,1.68 2.649,1.6c0.097,-0.01 0.19,-0.04 0.27,-0.1c0.08,-0.06 0.145,-0.13 0.189,-0.22c0.02,-0.03 0.031,-0.07 0.031,-0.1c0,-0.04 -0.011,-0.08 -0.031,-0.11c-0.229,-0.47 -1.863,-0.88 -3.108,-1.07z" fill="#263238"/>
<path id="Vector_389" d="M86.8672,272.3607c-0.198,0.01 -0.396,-0.01 -0.592,-0.04c-0.027,0 -0.053,-0.02 -0.074,-0.03c-0.022,-0.02 -0.039,-0.04 -0.049,-0.07c-0.013,-0.02 -0.02,-0.05 -0.02,-0.08c0,-0.03 0.007,-0.06 0.02,-0.09c0.053,-0.06 1.245,-1.5 2.375,-1.59c0.32,-0.03 0.637,0.07 0.883,0.28c0.345,0.3 0.327,0.56 0.239,0.73c-0.221,0.6 -1.749,0.89 -2.782,0.89zM86.6372,272.0407c0.989,0.05 2.57,-0.28 2.773,-0.71c0,0 0.071,-0.14 -0.159,-0.34c-0.091,-0.07 -0.198,-0.13 -0.313,-0.17c-0.116,-0.04 -0.237,-0.05 -0.358,-0.04c-0.761,0.22 -1.439,0.66 -1.943,1.27z" fill="#263238"/>
<path id="Vector_390" d="M74.5392,268.7607l-7.488,-2.12c-0.129,-0.04 -0.268,-0.03 -0.39,0.03c-0.122,0.06 -0.219,0.16 -0.272,0.28l-2.526,5.68c-0.059,0.14 -0.087,0.3 -0.082,0.46c0.006,0.15 0.044,0.31 0.114,0.45c0.069,0.14 0.167,0.26 0.288,0.36c0.121,0.11 0.262,0.18 0.413,0.22c2.649,0.69 3.921,0.88 7.215,1.83c2.031,0.56 4.927,1.61 7.727,2.41c2.799,0.79 3.735,-1.93 2.649,-2.52c-4.91,-2.59 -5.299,-4.41 -6.641,-6.36c-0.24,-0.35 -0.597,-0.6 -1.007,-0.72z" fill="#4CAF4F"/>
<path id="Vector_391" d="M86.3902,271.2507l-6.393,-4.41c-0.109,-0.08 -0.242,-0.12 -0.376,-0.11c-0.133,0.02 -0.257,0.08 -0.348,0.18l-4.239,4.55c-0.103,0.12 -0.18,0.26 -0.226,0.41c-0.046,0.15 -0.059,0.31 -0.039,0.46c0.02,0.16 0.073,0.31 0.155,0.44c0.082,0.13 0.192,0.25 0.322,0.34c2.252,1.51 3.417,2.11 6.234,4.07c1.766,1.2 5.184,3.86 7.568,5.52c2.384,1.66 4.159,-0.61 3.312,-1.51c-3.798,-4.06 -4.628,-6.6 -5.255,-8.91c-0.108,-0.41 -0.362,-0.78 -0.715,-1.03z" fill="#4CAF4F"/>
<path id="Vector_392" d="M81.2072,263.0407l-11.524,-5.73l1.192,-3.13l12.31,6.04z" fill="#4CAF4F"/>
<path id="Vector_393" d="M66.2212,155.0207l-0.971,2.54c-0.098,0.2 0.132,0.4 0.459,0.4h29.212c0.256,0 0.468,-0.12 0.485,-0.28l0.247,-2.53c0,-0.16 -0.203,-0.31 -0.476,-0.31h-28.497c-0.086,-0.01 -0.172,0 -0.252,0.03c-0.08,0.04 -0.151,0.09 -0.207,0.15z" fill="#4CAF4F"/>
<path id="Vector_394" opacity="0.4" d="M66.2212,155.0207l-0.971,2.54c-0.098,0.2 0.132,0.4 0.459,0.4h29.212c0.256,0 0.468,-0.12 0.485,-0.28l0.247,-2.53c0,-0.16 -0.203,-0.31 -0.476,-0.31h-28.497c-0.086,-0.01 -0.172,0 -0.252,0.03c-0.08,0.04 -0.151,0.09 -0.207,0.15z" fill="white"/>
<path id="Vector_395" d="M70.8222,158.2107h-0.769c-0.15,0 -0.264,-0.08 -0.256,-0.18l0.362,-3.27c0,-0.09 0.142,-0.17 0.292,-0.17h0.768c0.15,0 0.265,0.08 0.256,0.17l-0.362,3.27c-0.009,0.1 -0.141,0.18 -0.291,0.18z" fill="#4CAF4F"/>
<path id="Vector_396" d="M88.8362,158.2107h-0.759c-0.15,0 -0.265,-0.08 -0.256,-0.18l0.353,-3.27c0,-0.09 0.15,-0.17 0.3,-0.17h0.76c0.15,0 0.273,0.08 0.256,0.17l-0.353,3.27c-0.045,0.1 -0.142,0.18 -0.301,0.18z" fill="#4CAF4F"/>
<g id="Vector_397" style="mix-blend-mode:multiply">
<path d="M70.1512,307.7607c13.065,0 23.657,-0.77 23.657,-1.72c0,-0.94 -10.592,-1.71 -23.657,-1.71c-13.066,0 -23.658,0.77 -23.658,1.71c0,0.95 10.592,1.72 23.658,1.72z" fill="#F5F5F5"/>
</g>
<path id="Vector_398" d="M84.5622,303.6207c-4.186,-1.21 -8.83,-2.78 -11.639,-4.41c-0.079,-0.05 -0.167,-0.08 -0.247,-0.13v-18.95h8.469c0.643,-0.03 1.247,-0.32 1.688,-0.78c0.442,-0.47 0.688,-1.09 0.688,-1.74c0,-0.64 -0.246,-1.26 -0.688,-1.73c-0.441,-0.47 -1.045,-0.75 -1.688,-0.79h-8.425v-86.38h-5.086v86.38h-8.416c-0.343,-0.02 -0.688,0.03 -1.011,0.15c-0.324,0.12 -0.62,0.3 -0.87,0.54c-0.251,0.23 -0.45,0.52 -0.587,0.83c-0.136,0.32 -0.207,0.66 -0.207,1c0,0.35 0.071,0.69 0.207,1c0.137,0.32 0.336,0.6 0.587,0.84c0.25,0.24 0.546,0.42 0.87,0.54c0.323,0.11 0.668,0.16 1.011,0.14h8.416v18.93c-0.08,0 -0.159,0.07 -0.239,0.12c-2.852,1.66 -7.462,3.23 -11.647,4.42c-0.283,0.08 -0.526,0.27 -0.685,0.52c-0.159,0.24 -0.223,0.54 -0.181,0.83c0.041,0.3 0.186,0.57 0.408,0.76c0.222,0.19 0.507,0.3 0.802,0.31h28.126c0.282,-0.02 0.549,-0.14 0.757,-0.33c0.207,-0.19 0.342,-0.45 0.382,-0.73c0.041,-0.28 -0.016,-0.57 -0.161,-0.81c-0.145,-0.24 -0.368,-0.43 -0.634,-0.53z" fill="#E0E0E0"/>
<path id="Vector_399" d="M85.8602,179.9207h-31.401c-2.527,0 -4.575,2.04 -4.575,4.57v9.33c0,2.53 2.048,4.58 4.575,4.58h31.401c2.527,0 4.575,-2.05 4.575,-4.58v-9.33c0,-2.53 -2.048,-4.57 -4.575,-4.57z" fill="#4CAF4F"/>
<path id="Vector_400" d="M54.1672,198.4107v1.6c0,1.33 1.439,2.41 3.206,2.41h25.609c1.766,0 3.205,-1.08 3.205,-2.41v-1.6z" fill="#4CAF4F"/>
<path id="Vector_401" opacity="0.3" d="M54.1672,198.4107v1.6c0,1.33 1.439,2.41 3.206,2.41h25.609c1.766,0 3.205,-1.08 3.205,-2.41v-1.6z" fill="white"/>
</g>
</g></svg>