<svg viewBox="0 0 441.5329 433.399" x="0" y="0" fill="none" xmlns="http://www.w3.org/2000/svg"><g id="mobile-login/pana" xmlns="http://www.w3.org/2000/svg">
<g id="Floor">
<path id="Vector_408" d="M376.369,433.13c0,0.14 -71.768,0.27 -160.269,0.27c-88.501,0 -160.3,-0.13 -160.3,-0.27c0,-0.14 71.758,-0.27 160.3,-0.27c88.542,0 160.269,0.14 160.269,0.27z" fill="#263238"/>
</g>
<g id="Plant">
<path id="Vector_409" d="M306.441,306.61c-15.968,-11.16 -19.586,-31.86 -18.955,-50.47c0.103,-3.1 -0.238,-6.39 1.24,-9.11c1.478,-2.71 4.93,-4.59 7.71,-3.28c2.305,1.08 3.307,3.77 4.599,5.99c1.724,2.96 4.25,5.37 7.287,6.96c1.974,1.03 4.423,1.65 6.377,0.58c2.687,-1.48 2.997,-5.17 2.976,-8.27c0,-5.77 -0.034,-11.53 -0.103,-17.28c-0.186,-3.09 0.128,-6.19 0.93,-9.18c0.961,-2.94 3.1,-5.65 6.025,-6.48c2.925,-0.83 6.574,0.88 7.235,3.9c0.114,1.27 0.145,2.56 0.093,3.84c0.083,1.29 0.682,2.71 1.891,3.1c1.21,0.39 2.471,-0.51 3.401,-1.42c3.183,-3.1 5.353,-7.14 7.369,-11.13c2.015,-3.99 3.989,-8.09 6.883,-11.49c2.894,-3.4 6.894,-6.1 11.369,-6.36c4.475,-0.25 9.136,2.5 10.252,6.84c1.117,4.34 -1.416,8.77 -4.134,12.3c-4.101,5.23 -8.936,9.84 -14.355,13.69c-1.058,0.58 -1.902,1.48 -2.408,2.57c-0.672,2.07 1.281,4.14 3.317,4.79c2.305,0.76 4.806,0.53 7.235,0.81c2.429,0.29 5.012,1.35 5.932,3.62c1.261,3.16 -1.385,6.47 -3.979,8.64c-5.209,4.34 -11.124,7.76 -17.487,10.1c-2.274,0.83 -4.661,1.56 -6.501,3.15c-1.84,1.59 -2.935,4.37 -1.829,6.55c1.106,2.19 3.948,2.88 6.335,2.43c2.388,-0.44 4.506,-1.72 6.78,-2.58c4.248,-1.6 9.726,-1.31 12.402,2.36c0.83,1.26 1.355,2.7 1.534,4.2c0.179,1.5 0.008,3.02 -0.5,4.45c-1.034,2.83 -2.626,5.43 -4.682,7.63c-6.769,8.09 -15.564,14.24 -25.487,17.81c-9.849,3.41 -18.975,4.34 -28.763,0.76" fill="#4CAF4F"/>
<path id="Vector_410" d="M368.473,199.07c0,0 -0.093,0.1 -0.3,0.29l-0.92,0.81c-0.806,0.73 -1.994,1.78 -3.493,3.18c-4.249,3.94 -8.194,8.2 -11.803,12.74c-2.305,2.86 -4.692,6.11 -7.235,9.63c-2.542,3.53 -5.167,7.33 -7.772,11.37c-2.776,4.26 -5.319,8.67 -7.617,13.21c-1.199,2.37 -2.253,4.84 -3.338,7.36l-3.204,7.7c-4.223,9.7 -7.901,19.62 -11.017,29.73c-2.51,8.27 -4.24,16.76 -5.168,25.35c-0.601,5.8 -0.698,11.64 -0.289,17.46c0.165,2.07 0.32,3.65 0.465,4.72c0.062,0.52 0.103,0.93 0.144,1.23v0.43c-0.044,-0.14 -0.075,-0.27 -0.093,-0.42c-0.051,-0.3 -0.113,-0.7 -0.196,-1.21c-0.186,-1.04 -0.382,-2.67 -0.568,-4.74c-0.499,-5.83 -0.464,-11.69 0.103,-17.51c0.87,-8.63 2.562,-17.15 5.054,-25.46c3.09,-10.14 6.758,-20.09 10.986,-29.81l3.287,-7.67c1.085,-2.51 2.15,-5 3.359,-7.38c2.313,-4.55 4.877,-8.97 7.679,-13.24c2.646,-4.13 5.312,-7.87 7.824,-11.37c2.511,-3.49 4.94,-6.76 7.234,-9.61c3.646,-4.52 7.644,-8.75 11.958,-12.65c1.53,-1.37 2.749,-2.41 3.576,-3.1l0.961,-0.77c0.118,-0.11 0.246,-0.2 0.383,-0.27z" fill="#263238"/>
<path id="Vector_411" d="M328.992,250.06c-0.146,-0.42 -0.246,-0.86 -0.3,-1.31c-0.165,-0.86 -0.351,-2.07 -0.568,-3.64c-0.444,-3.1 -0.899,-7.35 -1.385,-12.05c-0.486,-4.7 -1.033,-8.96 -1.488,-12.03c-0.238,-1.53 -0.445,-2.76 -0.589,-3.62c-0.113,-0.44 -0.172,-0.89 -0.176,-1.34c0.178,0.41 0.306,0.85 0.382,1.29c0.228,0.85 0.486,2.07 0.776,3.61c0.589,3.1 1.167,7.32 1.653,12.03c0.486,4.71 0.899,8.85 1.22,12.06c0.155,1.45 0.289,2.68 0.393,3.66c0.08,0.44 0.108,0.89 0.082,1.34z" fill="#263238"/>
<path id="Vector_412" d="M368.762,242.64c-0.503,0.11 -1.015,0.17 -1.529,0.19c-1.034,0.09 -2.501,0.21 -4.32,0.42c-3.638,0.39 -8.641,1.12 -14.129,2.15c-5.488,1.03 -10.418,2.2 -13.963,3.1c-1.767,0.46 -3.193,0.87 -4.134,1.15c-0.502,0.18 -1.022,0.3 -1.55,0.37c0.478,-0.24 0.976,-0.44 1.488,-0.59c0.972,-0.34 2.377,-0.82 4.134,-1.32c3.525,-1.04 8.455,-2.27 13.963,-3.32c4.667,-0.89 9.375,-1.55 14.108,-1.96c1.829,-0.16 3.307,-0.22 4.341,-0.24c0.531,-0.04 1.064,-0.02 1.591,0.05z" fill="#263238"/>
<path id="Vector_413" d="M311.732,294.21c-0.11,-0.15 -0.2,-0.31 -0.268,-0.48l-0.683,-1.44c-0.589,-1.25 -1.384,-3.1 -2.335,-5.36c-1.923,-4.55 -4.372,-10.92 -6.977,-17.99c-2.604,-7.07 -5.002,-13.43 -6.821,-18.03c-0.889,-2.23 -1.623,-4.06 -2.17,-5.43l-0.579,-1.47c-0.08,-0.18 -0.136,-0.36 -0.165,-0.54c0.11,0.15 0.2,0.31 0.268,0.48l0.682,1.44c0.579,1.25 1.385,3.1 2.336,5.36c1.923,4.55 4.372,10.92 6.976,17.99c2.605,7.07 5.003,13.43 6.822,18.03c0.889,2.23 1.622,4.06 2.16,5.43c0.238,0.59 0.434,1.03 0.589,1.48c0.08,0.17 0.136,0.35 0.165,0.53z" fill="#263238"/>
<path id="Vector_414" d="M364.525,277.19c-0.166,0.1 -0.343,0.17 -0.527,0.22l-1.53,0.52l-5.653,1.82c-4.775,1.56 -11.369,3.77 -18.604,6.21c-7.234,2.44 -13.859,4.61 -18.665,6.05c-2.398,0.74 -4.351,1.29 -5.705,1.67l-1.561,0.4c-0.181,0.06 -0.368,0.1 -0.558,0.11c0.165,-0.09 0.343,-0.16 0.527,-0.21l1.53,-0.52l5.653,-1.83c4.775,-1.55 11.369,-3.76 18.604,-6.2c7.234,-2.44 13.849,-4.61 18.655,-6.06c2.408,-0.73 4.351,-1.29 5.715,-1.66l1.561,-0.4c0.181,-0.06 0.368,-0.1 0.558,-0.12z" fill="#263238"/>
</g>
<g id="Padlock">
<path id="Vector_415" d="M342.986,26.49l-5.323,1.9l-2.284,-6.95c-4.196,-12.83 -17.57,-19.64 -29.858,-15.31c-12.289,4.33 -18.831,18.4 -14.635,31.22l2.284,6.96l-5.343,1.91c-2.038,0.79 -3.692,2.33 -4.62,4.31c-0.928,1.98 -1.057,4.24 -0.362,6.31l14.811,45.26c0.307,1.03 0.817,1.98 1.501,2.81c0.683,0.82 1.525,1.5 2.475,1.99c0.951,0.49 1.991,0.79 3.058,0.87c1.068,0.09 2.141,-0.05 3.156,-0.39l55.159,-19.73c2.065,-0.79 3.743,-2.34 4.682,-4.35c0.938,-2 1.065,-4.28 0.352,-6.37l-14.821,-45.26c-0.315,-1.03 -0.834,-1.97 -1.524,-2.79c-0.69,-0.82 -1.538,-1.49 -2.493,-1.97c-0.954,-0.49 -1.997,-0.77 -3.065,-0.85c-1.068,-0.07 -2.139,0.08 -3.15,0.43zM300.942,33.72c-1.131,-3.33 -0.928,-6.97 0.567,-10.16c1.495,-3.19 4.166,-5.68 7.453,-6.94c1.624,-0.56 3.342,-0.78 5.053,-0.66c1.712,0.13 3.38,0.59 4.907,1.38c1.527,0.78 2.881,1.86 3.981,3.18c1.099,1.31 1.923,2.84 2.42,4.48l2.274,6.96l-24.381,8.72zM331.948,73.89l3.783,11.55c0.069,0.23 0.047,0.48 -0.063,0.7c-0.11,0.21 -0.298,0.38 -0.526,0.46l-5.302,1.89c-0.211,0.06 -0.437,0.03 -0.63,-0.07c-0.192,-0.1 -0.337,-0.28 -0.404,-0.49l-3.814,-11.5c-2.102,-0.12 -4.12,-0.87 -5.783,-2.16c-1.662,-1.3 -2.89,-3.07 -3.518,-5.08c-0.899,-2.65 -0.735,-5.55 0.457,-8.09c1.193,-2.54 3.321,-4.52 5.94,-5.53c1.293,-0.44 2.662,-0.62 4.025,-0.52c1.363,0.1 2.692,0.47 3.908,1.1c1.216,0.62 2.295,1.48 3.171,2.53c0.876,1.05 1.532,2.26 1.929,3.57c0.665,2.04 0.72,4.23 0.158,6.31c-0.562,2.07 -1.716,3.93 -3.321,5.36z" fill="#4CAF4F"/>
<path id="Vector_416" d="M337.426,28.27c0,0.14 -9.87,3.85 -22.149,8.27c-12.278,4.41 -22.293,7.95 -22.345,7.85c-0.051,-0.1 9.871,-3.84 22.159,-8.27c12.289,-4.42 22.283,-7.99 22.335,-7.85z" fill="#263238"/>
<path id="Vector_417" d="M349.146,30.17c0.045,0.09 0.083,0.18 0.114,0.28c0.082,0.2 0.175,0.47 0.299,0.8c0.269,0.76 0.641,1.8 1.106,3.1l3.969,11.56c1.654,4.9 3.628,10.71 5.819,17.16c1.033,3.23 2.253,6.6 3.39,10.15c0.608,1.82 0.871,3.75 0.775,5.67c-0.088,1 -0.372,1.97 -0.837,2.86c-0.497,0.89 -1.16,1.67 -1.954,2.31c-1.597,1.16 -3.369,2.07 -5.25,2.67l-5.323,1.92l-10.077,3.6l-17.063,6.08l-11.524,4.05l-3.101,1.03l-0.826,0.27c-0.089,0.04 -0.183,0.07 -0.279,0.08c0,0 0.082,0 0.258,-0.13l0.806,-0.32l3.101,-1.17l11.462,-4.21l17.032,-6.2l10.056,-3.64l5.323,-1.92c1.828,-0.59 3.549,-1.46 5.095,-2.6c0.738,-0.59 1.356,-1.32 1.819,-2.14c0.438,-0.82 0.702,-1.73 0.775,-2.65c0.096,-1.86 -0.157,-3.71 -0.744,-5.47c-1.116,-3.52 -2.294,-6.92 -3.359,-10.15c-2.149,-6.46 -4.134,-12.29 -5.705,-17.19c-1.571,-4.9 -2.894,-8.84 -3.803,-11.61c-0.434,-1.35 -0.765,-2.4 -1.034,-3.17l-0.248,-0.82c-0.031,-0.07 -0.055,-0.13 -0.072,-0.2z" fill="#263238"/>
<path id="Vector_418" d="M320.042,15.92c0,0 -0.548,-0.27 -1.561,-0.69c-1.444,-0.55 -2.97,-0.86 -4.516,-0.91c-2.292,-0.07 -4.572,0.36 -6.677,1.27c-2.56,1.13 -4.748,2.96 -6.315,5.28c-1.577,2.31 -2.423,5.04 -2.428,7.84c0.021,2.3 0.369,4.57 1.033,6.77c0.537,1.88 1.096,3.38 1.468,4.42c0.219,0.53 0.399,1.08 0.537,1.64c-0.294,-0.5 -0.539,-1.02 -0.734,-1.56c-0.424,-1.04 -1.033,-2.5 -1.633,-4.4c-0.736,-2.21 -1.136,-4.53 -1.188,-6.87c-0.028,-2.9 0.838,-5.75 2.48,-8.14c1.621,-2.41 3.899,-4.29 6.563,-5.44c2.171,-0.91 4.522,-1.32 6.873,-1.18c1.579,0.08 3.131,0.45 4.579,1.09c0.387,0.18 0.76,0.38 1.116,0.62c0.147,0.06 0.283,0.15 0.403,0.26z" fill="#263238"/>
<path id="Vector_419" d="M320.517,56.36c0.165,-0.1 0.338,-0.19 0.517,-0.26c0.517,-0.23 1.053,-0.42 1.602,-0.57c0.871,-0.26 1.77,-0.41 2.677,-0.45c1.234,-0.07 2.468,0.12 3.627,0.54c2.646,0.93 5.075,3.63 6.274,7.24c0.575,1.93 0.575,4 0,5.93c-0.638,2.1 -1.78,4.02 -3.328,5.57l0.062,-0.28c1.375,3.78 2.873,7.87 4.424,12.14l0.093,0.26l-0.259,0.09l-2.367,0.78l-5.167,1.73l-0.259,0.08l-0.082,-0.26c-1.416,-4.27 -2.967,-8.26 -4.134,-12.18l0.227,0.17c-2.021,-0.16 -3.947,-0.92 -5.54,-2.18c-1.441,-1.11 -2.622,-2.52 -3.462,-4.13c-0.758,-1.43 -1.135,-3.03 -1.096,-4.65c0.048,-1.66 0.461,-3.28 1.21,-4.75c0.749,-1.48 1.814,-2.77 3.121,-3.79c0.538,-0.43 1.141,-0.78 1.788,-1.03c-0.584,0.34 -1.15,0.72 -1.695,1.12c-1.435,1.22 -2.535,2.78 -3.194,4.54c-0.565,1.33 -0.83,2.77 -0.774,4.21c0.055,1.44 0.429,2.85 1.095,4.13c0.825,1.55 1.979,2.91 3.379,3.97c1.52,1.19 3.356,1.91 5.282,2.07h0.175l0.052,0.15c1.137,3.85 2.698,7.87 4.134,12.17l-0.341,-0.17l5.168,-1.72l2.356,-0.8l-0.165,0.35c-1.54,-4.27 -3.028,-8.37 -4.393,-12.14v-0.16l0.124,-0.12c1.503,-1.49 2.623,-3.33 3.266,-5.34c0.548,-1.86 0.548,-3.83 0,-5.68c-1.126,-3.47 -3.452,-6.11 -5.974,-7.04c-1.116,-0.43 -2.308,-0.63 -3.503,-0.59c-0.893,0.02 -1.781,0.15 -2.646,0.37c-1.54,0.38 -2.263,0.73 -2.274,0.68z" fill="#263238"/>
</g>
<g id="Device">
<path id="Vector_420" d="M288.571,354.78l-103.239,-0.48c-5.962,-0.03 -11.667,-2.43 -15.863,-6.66c-4.195,-4.24 -6.538,-9.97 -6.513,-15.93l1.096,-258.81c0.012,-2.95 0.606,-5.87 1.748,-8.6c1.143,-2.72 2.81,-5.19 4.909,-7.27c2.098,-2.08 4.585,-3.72 7.32,-4.84c2.734,-1.12 5.662,-1.69 8.616,-1.67l103.228,0.47c5.962,0.03 11.668,2.43 15.866,6.66c4.197,4.24 6.542,9.96 6.52,15.93l-1.095,258.79c-0.012,2.96 -0.606,5.88 -1.748,8.61c-1.142,2.72 -2.81,5.19 -4.908,7.27c-2.098,2.09 -4.585,3.73 -7.32,4.85c-2.734,1.12 -5.662,1.69 -8.617,1.68z" fill="#455A64"/>
<path id="Vector_421" d="M289.718,59.89h-20.009c-0.653,0.01 -1.297,0.16 -1.895,0.42c-0.599,0.26 -1.14,0.63 -1.593,1.1c-0.453,0.47 -0.809,1.03 -1.048,1.64c-0.238,0.61 -0.354,1.25 -0.342,1.91v3.62c0.012,0.66 -0.104,1.31 -0.343,1.91c-0.239,0.61 -0.595,1.16 -1.048,1.63c-0.453,0.47 -0.994,0.85 -1.593,1.11c-0.598,0.26 -1.242,0.4 -1.894,0.41l-39.006,-0.18c-1.319,-0.03 -2.571,-0.59 -3.48,-1.55c-0.909,-0.95 -1.4,-2.23 -1.367,-3.55v-3.63c0.033,-1.32 -0.457,-2.6 -1.364,-3.55c-0.906,-0.96 -2.155,-1.52 -3.473,-1.56h-7.038l-17.518,-0.08c-4.167,-0.02 -8.174,1.6 -11.144,4.53c-2.969,2.92 -4.659,6.9 -4.7,11.07l-1.034,252.61c-0.009,2.07 0.388,4.12 1.171,6.03c0.782,1.91 1.933,3.66 3.388,5.12c1.455,1.47 3.185,2.64 5.091,3.44c1.906,0.8 3.951,1.22 6.018,1.22l103.022,0.48c2.069,0.01 4.119,-0.39 6.033,-1.17c1.915,-0.78 3.657,-1.94 5.126,-3.39c1.469,-1.46 2.638,-3.19 3.438,-5.1c0.8,-1.9 1.217,-3.95 1.227,-6.02l1.033,-252.61c0.025,-4.18 -1.611,-8.2 -4.547,-11.17c-2.936,-2.97 -6.932,-4.66 -11.111,-4.69z" fill="white"/>
<path id="Vector_422" d="M275.859,310.34l-76.605,-0.33c-0.796,0 -1.437,-0.87 -1.427,-1.93l0.083,-20.04c0,-1.03 0.651,-1.92 1.447,-1.92l76.605,0.35c0.441,0.08 0.835,0.32 1.101,0.68c0.266,0.36 0.382,0.81 0.325,1.26l-0.072,20.01c0,1.07 -0.662,1.93 -1.457,1.92z" fill="#4CAF4F"/>
<path id="SING UP" d="M222.544,300.12c-0.422,0 -0.829,-0.06 -1.219,-0.2c-0.385,-0.14 -0.683,-0.32 -0.895,-0.54l0.236,-0.46c0.201,0.2 0.469,0.36 0.805,0.5c0.342,0.13 0.699,0.19 1.073,0.19c0.358,0 0.648,-0.04 0.87,-0.13c0.228,-0.09 0.393,-0.21 0.496,-0.36c0.109,-0.16 0.163,-0.32 0.163,-0.51c0,-0.22 -0.065,-0.4 -0.195,-0.53c-0.125,-0.14 -0.29,-0.25 -0.496,-0.32c-0.206,-0.08 -0.434,-0.15 -0.683,-0.21c-0.249,-0.06 -0.499,-0.13 -0.748,-0.19c-0.25,-0.07 -0.48,-0.16 -0.691,-0.28c-0.206,-0.11 -0.374,-0.26 -0.504,-0.44c-0.125,-0.19 -0.188,-0.44 -0.188,-0.74c0,-0.29 0.074,-0.54 0.22,-0.78c0.152,-0.23 0.382,-0.42 0.691,-0.57c0.309,-0.14 0.705,-0.22 1.187,-0.22c0.32,0 0.637,0.05 0.952,0.14c0.314,0.09 0.585,0.21 0.813,0.37l-0.203,0.48c-0.244,-0.16 -0.505,-0.28 -0.781,-0.36c-0.271,-0.07 -0.534,-0.11 -0.789,-0.11c-0.341,0 -0.623,0.04 -0.845,0.14c-0.223,0.09 -0.388,0.21 -0.496,0.37c-0.103,0.15 -0.155,0.32 -0.155,0.52c0,0.22 0.062,0.4 0.187,0.54c0.13,0.13 0.298,0.24 0.504,0.31c0.212,0.08 0.442,0.15 0.691,0.21c0.25,0.06 0.496,0.12 0.74,0.19c0.25,0.07 0.477,0.16 0.683,0.28c0.212,0.11 0.38,0.25 0.505,0.44c0.13,0.18 0.195,0.42 0.195,0.72c0,0.28 -0.076,0.54 -0.228,0.77c-0.152,0.24 -0.385,0.43 -0.699,0.57c-0.309,0.14 -0.708,0.21 -1.196,0.21zM225.978,300.08v-5.7h0.601v5.7zM228.431,300.08v-5.7h0.496l3.928,4.95h-0.26v-4.95h0.593v5.7h-0.496l-3.919,-4.95h0.26v4.95zM237.542,300.12c-0.433,0 -0.835,-0.07 -1.203,-0.21c-0.363,-0.14 -0.68,-0.35 -0.951,-0.61c-0.266,-0.26 -0.475,-0.56 -0.627,-0.92c-0.146,-0.35 -0.219,-0.73 -0.219,-1.15c0,-0.42 0.073,-0.8 0.219,-1.15c0.152,-0.36 0.364,-0.66 0.635,-0.92c0.271,-0.26 0.588,-0.46 0.951,-0.61c0.369,-0.14 0.77,-0.22 1.203,-0.22c0.434,0 0.83,0.07 1.188,0.21c0.363,0.13 0.672,0.34 0.927,0.62l-0.374,0.38c-0.239,-0.24 -0.502,-0.41 -0.789,-0.51c-0.288,-0.11 -0.596,-0.16 -0.927,-0.16c-0.353,0 -0.678,0.06 -0.976,0.18c-0.293,0.11 -0.55,0.28 -0.772,0.5c-0.217,0.21 -0.388,0.46 -0.513,0.74c-0.119,0.29 -0.179,0.6 -0.179,0.94c0,0.34 0.06,0.65 0.179,0.93c0.125,0.29 0.296,0.54 0.513,0.76c0.222,0.21 0.479,0.38 0.772,0.5c0.298,0.11 0.621,0.17 0.968,0.17c0.325,0 0.631,-0.05 0.919,-0.15c0.292,-0.1 0.561,-0.26 0.805,-0.49l0.341,0.45c-0.271,0.24 -0.588,0.42 -0.951,0.55c-0.364,0.11 -0.743,0.17 -1.139,0.17zM239.055,299.33v-2.1h0.577v2.17zM245.756,300.12c-0.726,0 -1.298,-0.2 -1.716,-0.62c-0.417,-0.42 -0.626,-1.04 -0.626,-1.86v-3.26h0.602v3.24c0,0.67 0.152,1.17 0.455,1.49c0.304,0.32 0.732,0.48 1.285,0.48c0.559,0 0.989,-0.16 1.293,-0.48c0.304,-0.32 0.455,-0.82 0.455,-1.49v-3.24h0.586v3.26c0,0.82 -0.209,1.44 -0.626,1.86c-0.412,0.42 -0.981,0.62 -1.708,0.62zM249.903,300.08v-5.7h2.13c0.483,0 0.898,0.08 1.245,0.24c0.346,0.15 0.612,0.37 0.796,0.67c0.19,0.28 0.285,0.63 0.285,1.05c0,0.4 -0.095,0.74 -0.285,1.04c-0.184,0.28 -0.45,0.51 -0.796,0.66c-0.347,0.16 -0.762,0.24 -1.245,0.24h-1.797l0.269,-0.29v2.09zM250.505,298.04l-0.269,-0.29h1.781c0.569,0 1,-0.12 1.293,-0.37c0.298,-0.25 0.447,-0.59 0.447,-1.04c0,-0.46 -0.149,-0.81 -0.447,-1.06c-0.293,-0.25 -0.724,-0.38 -1.293,-0.38h-1.781l0.269,-0.28z" fill="#E8E8E3"/>
<path id="Vector_423" d="M214.533,134.15l-26.582,-0.12l-0.022,4.88l26.582,0.12z" fill="#4CAF4F"/>
<path id="Vector_424" opacity="0.1" d="M214.533,134.15l-26.582,-0.12l-0.022,4.88l26.582,0.12z" fill="black"/>
<path id="Vector_425" d="M292.457,164.1c0.209,-0.02 0.414,-0.07 0.61,-0.14c0.286,-0.11 0.535,-0.3 0.717,-0.55c0.183,-0.25 0.293,-0.54 0.316,-0.85c0,-1.64 0,-4.04 0,-7.12c0,-1.54 0,-3.26 0,-5.17c0,-0.46 0,-0.95 0,-1.43c0.068,-0.47 -0.035,-0.95 -0.289,-1.36c-0.142,-0.19 -0.327,-0.35 -0.541,-0.46c-0.213,-0.11 -0.449,-0.16 -0.689,-0.17h-1.612h-14.935l-86.444,-0.32c-0.221,0 -0.44,0.05 -0.638,0.15c-0.198,0.1 -0.369,0.24 -0.499,0.42c-0.249,0.41 -0.345,0.89 -0.269,1.36c0,1.03 0,2.06 0,3.1c0,2.06 0,4.13 0,6.2c0,1.03 0,2.06 0,3.1c-0.042,0.48 -0.042,0.96 0,1.44c0.055,0.21 0.156,0.4 0.295,0.56c0.14,0.17 0.315,0.29 0.512,0.38c0.203,0.08 0.421,0.11 0.64,0.11h5.261l22.955,0.12l38.86,0.24l26.2,0.21l7.121,0.08h1.85c0.424,0 0.631,0 0.631,0h-0.631h-1.85h-7.121h-26.2l-38.86,-0.12l-22.955,-0.1h-5.261c-0.289,0.01 -0.578,-0.03 -0.847,-0.14c-0.272,-0.12 -0.514,-0.29 -0.708,-0.52c-0.193,-0.22 -0.333,-0.49 -0.408,-0.77c-0.06,-0.27 -0.081,-0.55 -0.062,-0.83v-0.77c0,-1.03 0,-2.06 0,-3.1c0,-2.06 0,-4.13 0,-6.2c0,-1.03 0,-2.06 0,-3.1c-0.02,-0.27 -0.02,-0.55 0,-0.82c0.038,-0.31 0.156,-0.6 0.341,-0.84c0.178,-0.25 0.414,-0.45 0.688,-0.59c0.273,-0.14 0.576,-0.21 0.883,-0.21l86.444,0.48l14.934,0.1h1.613c0.284,0 0.564,0.07 0.815,0.2c0.252,0.13 0.469,0.32 0.632,0.56c0.291,0.45 0.409,0.99 0.33,1.52c0,0.48 0,0.97 0,1.43c0,1.88 0,3.61 0,5.17c0,3.1 -0.072,5.48 -0.093,7.13c-0.025,0.32 -0.141,0.62 -0.333,0.88c-0.192,0.25 -0.453,0.45 -0.752,0.56c-0.195,0.12 -0.421,0.18 -0.651,0.18z" fill="#E0E0E0"/>
<path id="Vector_426" d="M244.553,151.72h-48.617v4.56h48.617z" fill="#4CAF4F"/>
<path id="Vector_427" opacity="0.2" d="M244.553,151.72h-48.617v4.56h48.617z" fill="white"/>
<path id="Vector_428" d="M214.352,178.65l-26.582,-0.12l-0.022,4.88l26.582,0.12z" fill="#4CAF4F"/>
<path id="Vector_429" opacity="0.1" d="M214.352,178.65l-26.582,-0.12l-0.022,4.88l26.582,0.12z" fill="black"/>
<path id="Vector_430" d="M291.785,208.61c0.209,-0.03 0.416,-0.07 0.62,-0.12c0.289,-0.09 0.555,-0.24 0.779,-0.44c0.225,-0.21 0.403,-0.46 0.524,-0.73c0.162,-0.42 0.226,-0.87 0.186,-1.32c0,-0.49 0,-1.03 0,-1.63c0,-1.2 0,-2.56 0,-4.13v-6.57c0.049,-0.47 -0.056,-0.95 -0.3,-1.36c-0.255,-0.42 -0.656,-0.74 -1.127,-0.88c-0.514,-0.09 -1.039,-0.12 -1.56,-0.08h-14.873l-86.144,-0.32c-0.463,0 -0.911,0.17 -1.259,0.47c-0.347,0.31 -0.572,0.73 -0.632,1.19c0,0.98 0,2.07 0,3.1c0,2.07 0,4.14 0,6.2c0,1.04 0,2.07 0,3.1c-0.039,0.49 -0.018,0.97 0.062,1.45c0.129,0.42 0.394,0.78 0.754,1.03c0.382,0.25 0.83,0.36 1.282,0.33h1.436h2.987l22.872,0.12l38.726,0.24l26.107,0.2l7.1,0.08h-7.1h-26.107l-38.747,-0.04l-22.872,-0.08h-4.495c-0.559,0.03 -1.114,-0.11 -1.582,-0.42c-0.47,-0.33 -0.813,-0.81 -0.971,-1.36c-0.093,-0.52 -0.121,-1.06 -0.083,-1.59c0,-1.03 0,-2.07 0,-3.1c0,-2.07 0,-4.13 0,-6.2c0,-1.03 0,-2.07 0,-3.1c0.075,-0.59 0.364,-1.13 0.811,-1.53c0.447,-0.39 1.022,-0.61 1.618,-0.61l86.144,0.48l14.873,0.11c0.554,-0.03 1.109,0 1.653,0.11c0.537,0.18 0.99,0.55 1.272,1.04c0.267,0.45 0.383,0.98 0.33,1.51c0,0.48 0,0.96 0,1.43c0,1.87 0,3.59 0,5.17c0,1.58 0,2.91 0,4.13c0,0.59 0,1.14 0,1.65c0.038,0.46 -0.037,0.92 -0.217,1.35c-0.134,0.29 -0.328,0.54 -0.569,0.74c-0.241,0.21 -0.522,0.35 -0.826,0.44c-0.226,0.02 -0.453,0 -0.672,-0.06z" fill="#E0E0E0"/>
<path id="Vector_431" d="M214.152,225.09l-26.582,-0.12l-0.022,4.88l26.582,0.12z" fill="#4CAF4F"/>
<path id="Vector_432" opacity="0.1" d="M214.152,225.09l-26.582,-0.12l-0.022,4.88l26.582,0.12z" fill="black"/>
<path id="Vector_433" d="M291.578,255.02c0.209,-0.02 0.417,-0.06 0.621,-0.11c0.287,-0.09 0.552,-0.24 0.776,-0.45c0.225,-0.2 0.404,-0.44 0.526,-0.72c0.162,-0.42 0.226,-0.87 0.186,-1.31c0,-0.51 0,-1.04 0,-1.64c0,-1.19 0,-2.57 0,-4.14v-6.56c0.049,-0.48 -0.056,-0.96 -0.3,-1.37c-0.261,-0.41 -0.66,-0.72 -1.126,-0.86c-0.515,-0.1 -1.039,-0.13 -1.561,-0.1h-14.872l-86.145,-0.32c-0.463,0 -0.91,0.17 -1.258,0.48c-0.348,0.3 -0.573,0.73 -0.633,1.19c0,1.03 0,2.06 0,3.1c0,2.06 0,4.13 0,6.2c0,1.03 0,2.07 0,3.1c-0.039,0.48 -0.018,0.96 0.062,1.44c0.124,0.42 0.39,0.78 0.754,1.03c0.38,0.25 0.83,0.36 1.282,0.33h4.496l22.872,0.12l38.726,0.24l26.107,0.21l7.1,0.08h-7.1h-26.107l-38.726,-0.11l-22.872,-0.1h-4.496c-0.56,0.04 -1.116,-0.11 -1.581,-0.42c-0.471,-0.33 -0.814,-0.8 -0.972,-1.35c-0.093,-0.53 -0.12,-1.06 -0.083,-1.6c0,-1.03 0,-2.06 0,-3.1c0,-2.06 0,-4.13 0,-6.2c0,-1.03 0,-2.06 0,-3.15c0.073,-0.59 0.36,-1.13 0.805,-1.53c0.445,-0.39 1.019,-0.61 1.614,-0.61l86.144,0.48l14.873,0.11c0.553,-0.03 1.109,0 1.653,0.11c0.537,0.18 0.99,0.55 1.272,1.04c0.267,0.45 0.383,0.98 0.33,1.51c0,0.48 0,0.97 0,1.43c0,1.87 0,3.59 0,5.17c0,1.58 0,2.92 0,4.13c0,0.59 0,1.14 0,1.65c0.04,0.46 -0.035,0.93 -0.217,1.35c-0.134,0.29 -0.328,0.54 -0.569,0.74c-0.241,0.21 -0.522,0.36 -0.826,0.44c-0.242,0.08 -0.501,0.11 -0.755,0.07z" fill="#E0E0E0"/>
<path id="Vector_434" d="M243.515,197.51l-48.616,-0.22l-0.021,4.56l48.617,0.22z" fill="#4CAF4F"/>
<path id="Vector_435" opacity="0.2" d="M243.515,197.51l-48.616,-0.22l-0.021,4.56l48.617,0.22z" fill="white"/>
<path id="Vector_436" d="M199.295,246.59c-0.031,0.41 -0.182,0.81 -0.437,1.14c-0.254,0.33 -0.6,0.58 -0.994,0.72c-0.394,0.13 -0.82,0.15 -1.223,0.05c-0.404,-0.11 -0.768,-0.33 -1.048,-0.64c-0.28,-0.31 -0.463,-0.69 -0.526,-1.1c-0.063,-0.42 -0.004,-0.84 0.17,-1.22c0.174,-0.37 0.456,-0.69 0.809,-0.91c0.354,-0.22 0.765,-0.34 1.182,-0.33c0.576,0.04 1.116,0.29 1.503,0.72c0.386,0.43 0.589,0.99 0.564,1.57z" fill="#4CAF4F"/>
<path id="Vector_437" d="M205.878,246.62c0.021,0.29 -0.019,0.58 -0.117,0.86c-0.097,0.27 -0.25,0.53 -0.449,0.74c-0.2,0.21 -0.441,0.38 -0.709,0.5c-0.267,0.12 -0.556,0.18 -0.848,0.18c-0.293,0 -0.581,-0.06 -0.849,-0.18c-0.268,-0.12 -0.509,-0.29 -0.708,-0.5c-0.2,-0.21 -0.353,-0.47 -0.45,-0.74c-0.098,-0.28 -0.138,-0.57 -0.117,-0.86c-0.021,-0.29 0.019,-0.58 0.117,-0.86c0.097,-0.27 0.25,-0.53 0.45,-0.74c0.199,-0.21 0.44,-0.38 0.708,-0.5c0.268,-0.12 0.556,-0.18 0.849,-0.18c0.292,0 0.581,0.06 0.848,0.18c0.268,0.12 0.509,0.29 0.709,0.5c0.199,0.21 0.352,0.47 0.449,0.74c0.098,0.28 0.138,0.57 0.117,0.86z" fill="#4CAF4F"/>
<path id="Vector_438" d="M212.472,246.65c-0.03,0.42 -0.182,0.81 -0.436,1.14c-0.255,0.33 -0.601,0.58 -0.995,0.72c-0.394,0.13 -0.819,0.15 -1.223,0.05c-0.404,-0.11 -0.768,-0.33 -1.048,-0.64c-0.279,-0.31 -0.462,-0.69 -0.525,-1.1c-0.064,-0.41 -0.005,-0.84 0.17,-1.21c0.174,-0.38 0.455,-0.7 0.809,-0.92c0.354,-0.22 0.765,-0.33 1.181,-0.32c0.575,0.03 1.114,0.29 1.5,0.72c0.386,0.42 0.59,0.99 0.567,1.56z" fill="#4CAF4F"/>
<path id="Vector_439" d="M219.056,246.68c-0.031,0.42 -0.182,0.82 -0.437,1.15c-0.254,0.33 -0.6,0.57 -0.994,0.71c-0.394,0.14 -0.82,0.15 -1.223,0.05c-0.404,-0.11 -0.768,-0.33 -1.048,-0.64c-0.28,-0.3 -0.463,-0.69 -0.526,-1.1c-0.063,-0.41 -0.004,-0.83 0.17,-1.21c0.174,-0.38 0.456,-0.7 0.81,-0.92c0.353,-0.22 0.764,-0.33 1.181,-0.32c0.575,0.03 1.113,0.29 1.499,0.72c0.387,0.43 0.591,0.99 0.568,1.56z" fill="#4CAF4F"/>
<path id="Vector_440" d="M225.64,246.7c-0.029,0.42 -0.179,0.82 -0.433,1.15c-0.253,0.33 -0.598,0.58 -0.992,0.72c-0.394,0.14 -0.82,0.15 -1.225,0.05c-0.404,-0.1 -0.769,-0.32 -1.05,-0.63c-0.281,-0.31 -0.464,-0.69 -0.528,-1.11c-0.064,-0.41 -0.006,-0.83 0.168,-1.21c0.174,-0.38 0.456,-0.7 0.81,-0.92c0.354,-0.22 0.765,-0.33 1.182,-0.32c0.573,0.03 1.11,0.29 1.496,0.72c0.386,0.42 0.591,0.98 0.572,1.55z" fill="#4CAF4F"/>
<path id="Vector_441" d="M232.233,246.73c-0.028,0.42 -0.176,0.81 -0.427,1.15c-0.251,0.33 -0.593,0.58 -0.985,0.72c-0.391,0.13 -0.814,0.16 -1.217,0.06c-0.404,-0.1 -0.769,-0.32 -1.052,-0.62c-0.283,-0.3 -0.471,-0.68 -0.541,-1.09c-0.07,-0.41 -0.019,-0.83 0.147,-1.21c0.166,-0.38 0.44,-0.71 0.788,-0.93c0.347,-0.23 0.754,-0.35 1.169,-0.35c0.582,0.02 1.132,0.27 1.529,0.7c0.397,0.43 0.609,0.99 0.589,1.57z" fill="#4CAF4F"/>
<path id="Vector_442" d="M238.817,246.76c0.02,0.3 -0.02,0.59 -0.117,0.86c-0.098,0.28 -0.251,0.53 -0.45,0.75c-0.199,0.21 -0.44,0.38 -0.708,0.5c-0.268,0.11 -0.557,0.17 -0.849,0.17c-0.292,0 -0.581,-0.06 -0.849,-0.17c-0.268,-0.12 -0.509,-0.29 -0.708,-0.5c-0.199,-0.22 -0.352,-0.47 -0.45,-0.75c-0.097,-0.27 -0.137,-0.56 -0.117,-0.86c-0.02,-0.29 0.02,-0.58 0.117,-0.85c0.098,-0.28 0.251,-0.53 0.45,-0.75c0.199,-0.21 0.44,-0.38 0.708,-0.5c0.268,-0.11 0.557,-0.17 0.849,-0.17c0.292,0 0.581,0.06 0.849,0.17c0.268,0.12 0.509,0.29 0.708,0.5c0.199,0.22 0.352,0.47 0.45,0.75c0.097,0.27 0.137,0.56 0.117,0.85z" fill="#4CAF4F"/>
<path id="Vector_443" d="M245.401,246.8c-0.029,0.41 -0.177,0.81 -0.428,1.14c-0.251,0.33 -0.593,0.58 -0.984,0.72c-0.392,0.14 -0.815,0.16 -1.218,0.06c-0.404,-0.1 -0.769,-0.31 -1.052,-0.62c-0.283,-0.3 -0.471,-0.68 -0.541,-1.09c-0.07,-0.41 -0.019,-0.83 0.147,-1.21c0.166,-0.38 0.44,-0.7 0.788,-0.93c0.347,-0.23 0.754,-0.35 1.169,-0.35c0.582,0.02 1.132,0.27 1.529,0.7c0.397,0.43 0.609,0.99 0.59,1.58z" fill="#4CAF4F"/>
<path id="Vector_444" d="M251.984,246.83c-0.028,0.41 -0.179,0.81 -0.432,1.14c-0.253,0.34 -0.598,0.59 -0.993,0.72c-0.394,0.14 -0.819,0.16 -1.224,0.05c-0.404,-0.1 -0.77,-0.32 -1.05,-0.63c-0.281,-0.31 -0.465,-0.69 -0.529,-1.1c-0.064,-0.41 -0.005,-0.84 0.169,-1.22c0.174,-0.38 0.455,-0.7 0.809,-0.92c0.355,-0.22 0.766,-0.33 1.183,-0.32c0.573,0.04 1.11,0.29 1.496,0.72c0.386,0.42 0.591,0.98 0.571,1.56z" fill="#4CAF4F"/>
<g id="Group_16" opacity="0.2">
<path id="Vector_445" d="M199.295,246.59c-0.031,0.41 -0.182,0.81 -0.437,1.14c-0.254,0.33 -0.6,0.58 -0.994,0.72c-0.394,0.13 -0.82,0.15 -1.223,0.05c-0.404,-0.11 -0.768,-0.33 -1.048,-0.64c-0.28,-0.31 -0.463,-0.69 -0.526,-1.1c-0.063,-0.42 -0.004,-0.84 0.17,-1.22c0.174,-0.37 0.456,-0.69 0.809,-0.91c0.354,-0.22 0.765,-0.34 1.182,-0.33c0.576,0.04 1.116,0.29 1.503,0.72c0.386,0.43 0.589,0.99 0.564,1.57z" fill="white"/>
<path id="Vector_446" d="M205.878,246.62c0.021,0.29 -0.019,0.58 -0.117,0.86c-0.097,0.27 -0.25,0.53 -0.449,0.74c-0.2,0.21 -0.441,0.38 -0.709,0.5c-0.267,0.12 -0.556,0.18 -0.848,0.18c-0.293,0 -0.581,-0.06 -0.849,-0.18c-0.268,-0.12 -0.509,-0.29 -0.708,-0.5c-0.2,-0.21 -0.353,-0.47 -0.45,-0.74c-0.098,-0.28 -0.138,-0.57 -0.117,-0.86c-0.021,-0.29 0.019,-0.58 0.117,-0.86c0.097,-0.27 0.25,-0.53 0.45,-0.74c0.199,-0.21 0.44,-0.38 0.708,-0.5c0.268,-0.12 0.556,-0.18 0.849,-0.18c0.292,0 0.581,0.06 0.848,0.18c0.268,0.12 0.509,0.29 0.709,0.5c0.199,0.21 0.352,0.47 0.449,0.74c0.098,0.28 0.138,0.57 0.117,0.86z" fill="white"/>
<path id="Vector_447" d="M212.472,246.65c-0.03,0.42 -0.182,0.81 -0.436,1.14c-0.255,0.33 -0.601,0.58 -0.995,0.72c-0.394,0.13 -0.819,0.15 -1.223,0.05c-0.404,-0.11 -0.768,-0.33 -1.048,-0.64c-0.279,-0.31 -0.462,-0.69 -0.525,-1.1c-0.064,-0.41 -0.005,-0.84 0.17,-1.21c0.174,-0.38 0.455,-0.7 0.809,-0.92c0.354,-0.22 0.765,-0.33 1.181,-0.32c0.575,0.03 1.114,0.29 1.5,0.72c0.386,0.42 0.59,0.99 0.567,1.56z" fill="white"/>
<path id="Vector_448" d="M219.056,246.68c-0.031,0.42 -0.182,0.82 -0.437,1.15c-0.254,0.33 -0.6,0.57 -0.994,0.71c-0.394,0.14 -0.82,0.15 -1.223,0.05c-0.404,-0.11 -0.768,-0.33 -1.048,-0.64c-0.28,-0.3 -0.463,-0.69 -0.526,-1.1c-0.063,-0.41 -0.004,-0.83 0.17,-1.21c0.174,-0.38 0.456,-0.7 0.81,-0.92c0.353,-0.22 0.764,-0.33 1.181,-0.32c0.575,0.03 1.113,0.29 1.499,0.72c0.387,0.43 0.591,0.99 0.568,1.56z" fill="white"/>
<path id="Vector_449" d="M225.64,246.7c-0.029,0.42 -0.179,0.82 -0.433,1.15c-0.253,0.33 -0.598,0.58 -0.992,0.72c-0.394,0.14 -0.82,0.15 -1.225,0.05c-0.404,-0.1 -0.769,-0.32 -1.05,-0.63c-0.281,-0.31 -0.464,-0.69 -0.528,-1.11c-0.064,-0.41 -0.006,-0.83 0.168,-1.21c0.174,-0.38 0.456,-0.7 0.81,-0.92c0.354,-0.22 0.765,-0.33 1.182,-0.32c0.573,0.03 1.11,0.29 1.496,0.72c0.386,0.42 0.591,0.98 0.572,1.55z" fill="white"/>
<path id="Vector_450" d="M232.233,246.73c-0.028,0.42 -0.177,0.81 -0.427,1.15c-0.251,0.33 -0.593,0.58 -0.985,0.72c-0.391,0.13 -0.814,0.16 -1.217,0.06c-0.404,-0.1 -0.769,-0.32 -1.052,-0.62c-0.283,-0.3 -0.471,-0.68 -0.541,-1.09c-0.07,-0.41 -0.019,-0.83 0.147,-1.21c0.166,-0.38 0.44,-0.71 0.787,-0.93c0.348,-0.23 0.754,-0.35 1.17,-0.35c0.582,0.02 1.132,0.27 1.529,0.7c0.397,0.43 0.609,0.99 0.589,1.57z" fill="white"/>
<path id="Vector_451" d="M238.817,246.76c0.02,0.3 -0.02,0.59 -0.117,0.86c-0.098,0.28 -0.251,0.53 -0.45,0.75c-0.199,0.21 -0.44,0.38 -0.708,0.5c-0.268,0.11 -0.557,0.17 -0.849,0.17c-0.292,0 -0.581,-0.06 -0.849,-0.17c-0.268,-0.12 -0.509,-0.29 -0.708,-0.5c-0.199,-0.22 -0.352,-0.47 -0.45,-0.75c-0.097,-0.27 -0.137,-0.56 -0.117,-0.86c-0.02,-0.29 0.02,-0.58 0.117,-0.85c0.098,-0.28 0.251,-0.53 0.45,-0.75c0.199,-0.21 0.44,-0.38 0.708,-0.5c0.268,-0.11 0.557,-0.17 0.849,-0.17c0.292,0 0.581,0.06 0.849,0.17c0.268,0.12 0.509,0.29 0.708,0.5c0.199,0.22 0.352,0.47 0.45,0.75c0.097,0.27 0.137,0.56 0.117,0.85z" fill="white"/>
<path id="Vector_452" d="M245.401,246.8c-0.029,0.41 -0.177,0.81 -0.428,1.14c-0.251,0.33 -0.593,0.58 -0.984,0.72c-0.392,0.14 -0.815,0.16 -1.218,0.06c-0.404,-0.1 -0.769,-0.31 -1.052,-0.62c-0.283,-0.3 -0.471,-0.68 -0.541,-1.09c-0.07,-0.41 -0.019,-0.83 0.147,-1.21c0.166,-0.38 0.44,-0.7 0.788,-0.93c0.347,-0.23 0.754,-0.35 1.169,-0.35c0.582,0.02 1.132,0.27 1.529,0.7c0.397,0.43 0.609,0.99 0.59,1.58z" fill="white"/>
<path id="Vector_453" d="M251.984,246.83c-0.028,0.41 -0.179,0.81 -0.432,1.14c-0.253,0.34 -0.598,0.59 -0.993,0.72c-0.394,0.14 -0.819,0.16 -1.224,0.05c-0.404,-0.1 -0.77,-0.32 -1.05,-0.63c-0.281,-0.31 -0.465,-0.69 -0.529,-1.1c-0.064,-0.41 -0.005,-0.84 0.169,-1.22c0.174,-0.38 0.455,-0.7 0.809,-0.92c0.355,-0.22 0.766,-0.33 1.183,-0.32c0.573,0.04 1.11,0.29 1.496,0.72c0.386,0.42 0.591,0.98 0.571,1.56z" fill="white"/>
</g>
<path id="Vector_454" d="M242.631,97.63c0.718,-0.32 1.327,-0.84 1.751,-1.5c0.425,-0.66 0.646,-1.43 0.636,-2.21c0.027,-0.51 -0.05,-1.02 -0.227,-1.5c-0.177,-0.48 -0.449,-0.92 -0.801,-1.29c-0.351,-0.37 -0.774,-0.67 -1.244,-0.87c-0.469,-0.2 -0.974,-0.3 -1.485,-0.3c-0.51,0 -1.016,0.1 -1.485,0.3c-0.469,0.2 -0.892,0.5 -1.244,0.87c-0.351,0.37 -0.624,0.81 -0.8,1.29c-0.177,0.48 -0.254,0.99 -0.228,1.5c-0.015,0.79 0.204,1.57 0.631,2.24c0.427,0.66 1.042,1.19 1.767,1.51c-5.788,0.87 -5.529,7.15 -5.529,7.15l13.684,0.06c0,0 0.32,-6.4 -5.426,-7.25z" fill="#4CAF4F"/>
<path id="Vector_455" opacity="0.1" d="M242.631,97.63c0.718,-0.32 1.327,-0.84 1.751,-1.5c0.425,-0.66 0.646,-1.43 0.636,-2.21c0.027,-0.51 -0.05,-1.02 -0.227,-1.5c-0.177,-0.48 -0.449,-0.92 -0.801,-1.29c-0.351,-0.37 -0.774,-0.67 -1.244,-0.87c-0.469,-0.2 -0.974,-0.3 -1.485,-0.3c-0.51,0 -1.016,0.1 -1.485,0.3c-0.469,0.2 -0.892,0.5 -1.244,0.87c-0.351,0.37 -0.624,0.81 -0.8,1.29c-0.177,0.48 -0.254,0.99 -0.228,1.5c-0.015,0.79 0.204,1.57 0.631,2.24c0.427,0.66 1.042,1.19 1.767,1.51c-5.788,0.87 -5.529,7.15 -5.529,7.15l13.684,0.06c0,0 0.32,-6.4 -5.426,-7.25z" fill="black"/>
<path id="Vector_456" d="M264.867,108.94l-48.772,-0.23l-0.027,5.83l48.772,0.22z" fill="#4CAF4F"/>
<path id="Vector_457" opacity="0.2" d="M264.867,108.94l-48.772,-0.23l-0.027,5.83l48.772,0.22z" fill="white"/>
</g>
<g id="speech-bubble">
<path id="Vector_458" d="M85.566,139.14h-0.486l-1.406,0.11c-0.76,0.04 -1.517,0.14 -2.263,0.3c-0.484,0.06 -0.963,0.16 -1.437,0.28l-1.602,0.44c-2.726,0.84 -5.299,2.11 -7.617,3.77c-3.062,2.23 -5.619,5.07 -7.503,8.35c-1.107,1.9 -1.988,3.91 -2.625,6.01c-0.67,2.28 -1.055,4.63 -1.148,7.01c-0.061,1.24 -0.04,2.49 0.062,3.74c0,0.63 0.176,1.26 0.259,1.9c0.069,0.64 0.19,1.28 0.362,1.91c0.929,4.15 2.815,8.02 5.506,11.31c2.692,3.29 6.115,5.9 9.996,7.64c2.81,1.21 5.821,1.88 8.878,1.99c3.159,0.17 6.32,-0.28 9.302,-1.33l0.91,-0.34h0.124l0.103,0.06l13.033,6.61l-0.383,0.33c-1.395,-4.32 -2.738,-8.5 -4.041,-12.52v-0.16l0.114,-0.11c3.162,-3.19 5.509,-7.09 6.842,-11.37c1.208,-3.92 1.56,-8.05 1.034,-12.11c-0.469,-3.62 -1.63,-7.1 -3.421,-10.28c-1.544,-2.72 -3.536,-5.17 -5.892,-7.23c-1.943,-1.64 -4.094,-3 -6.397,-4.07c-1.742,-0.76 -3.557,-1.33 -5.416,-1.71l-2.067,-0.34l-1.498,-0.11l-0.91,-0.07h-0.31c0.103,-0.01 0.207,-0.01 0.31,0h0.92l1.499,0.07l2.067,0.3c1.881,0.35 3.721,0.9 5.488,1.64c2.342,1.06 4.532,2.42 6.511,4.06c2.399,2.06 4.433,4.5 6.015,7.24c1.842,3.2 3.039,6.74 3.524,10.4c0.571,4.13 0.243,8.33 -0.961,12.32c-1.342,4.38 -3.725,8.36 -6.945,11.61l0.062,-0.27c1.302,4.02 2.656,8.21 4.062,12.52l0.196,0.63l-0.589,-0.3l-13.033,-6.61h0.227l-0.93,0.34c-3.039,1.07 -6.259,1.54 -9.477,1.37c-3.124,-0.12 -6.198,-0.82 -9.064,-2.07c-5.468,-2.34 -10.017,-6.41 -12.95,-11.58c-1.35,-2.39 -2.336,-4.97 -2.925,-7.65c-0.162,-0.65 -0.282,-1.3 -0.362,-1.96c-0.083,-0.65 -0.217,-1.29 -0.248,-1.93c-0.28,-3.68 0.109,-7.37 1.147,-10.91c0.653,-2.13 1.559,-4.17 2.698,-6.08c1.928,-3.31 4.539,-6.18 7.658,-8.4c2.356,-1.67 4.972,-2.93 7.741,-3.74l1.623,-0.42c0.478,-0.11 0.96,-0.19 1.447,-0.26c0.754,-0.14 1.517,-0.22 2.284,-0.24l1.416,-0.06c0.161,-0.02 0.323,-0.03 0.486,-0.03z" fill="#4CAF4F"/>
<path id="Vector_459" d="M91.457,163.25h-1.912l-4.134,-5.81v-3.82c0,0 -2.956,-0.18 -2.605,4.81c0.352,4.99 0,3.72 0,3.72c0,0 -6.273,0 -6.79,0.57c-0.517,0.57 -0.548,6.62 -0.62,10c-0.04,0.82 0.194,1.62 0.664,2.29c0.47,0.67 1.149,1.16 1.93,1.39c0.219,0.06 0.445,0.09 0.672,0.1c1.571,0 9.56,-1.28 9.56,-1.28h3.297z" fill="#4CAF4F"/>
<path id="Vector_460" d="M96.924,162.22l-1.178,13.07h-3.266v-12.8z" fill="#4CAF4F"/>
</g>
<g id="Character">
<path id="Vector_461" d="M135.878,428.18v-8.84l-15.844,-0.11l-0.135,13.36l0.982,0.08c4.372,0.27 22.242,0.69 25.177,-0.22c3.266,-1.01 -10.18,-4.27 -10.18,-4.27z" fill="#4CAF4F"/>
<path id="Vector_462" d="M146.43,431.62c0,0.15 -5.932,0.27 -13.239,0.27c-7.308,0 -13.24,-0.12 -13.24,-0.27c0,-0.14 5.932,-0.27 13.24,-0.27c7.307,0 13.239,0.13 13.239,0.27z" fill="#263238"/>
<path id="Vector_463" d="M136.157,429.99c-0.135,-0.07 0,-0.54 0.32,-1.04c0.321,-0.49 0.755,-0.7 0.858,-0.59c0.103,0.1 -0.114,0.49 -0.424,0.92c-0.31,0.42 -0.62,0.78 -0.754,0.71z" fill="#263238"/>
<path id="Vector_464" d="M137.17,430.57c-0.145,0 -0.073,-0.58 0.237,-1.13c0.31,-0.55 0.724,-0.88 0.837,-0.8c0.114,0.09 -0.072,0.55 -0.361,1.04c-0.29,0.48 -0.579,0.94 -0.713,0.89z" fill="#263238"/>
<path id="Vector_465" d="M124.726,431.58c-0.062,0 -0.3,-0.19 -0.641,-0.58c-0.416,-0.5 -0.88,-0.97 -1.385,-1.38c-0.496,-0.4 -1.088,-0.66 -1.715,-0.76c-0.486,-0.06 -0.796,0 -0.827,-0.06c-0.031,-0.06 0.268,-0.28 0.837,-0.32c0.75,-0.02 1.482,0.23 2.067,0.7c0.548,0.45 1.01,0.99 1.364,1.6c0.238,0.46 0.362,0.76 0.3,0.8z" fill="#263238"/>
<path id="Vector_466" d="M136.208,428.32c0.073,0.13 -0.196,0.44 -0.651,0.6c-0.454,0.17 -0.858,0.11 -0.878,0c-0.021,-0.1 0.3,-0.32 0.692,-0.46c0.393,-0.15 0.755,-0.26 0.837,-0.14z" fill="#263238"/>
<path id="Vector_467" d="M135.96,427.47c0,0.15 -0.413,0.28 -0.951,0.29c-0.537,0.01 -0.961,-0.12 -0.95,-0.26c0.01,-0.15 0.434,-0.28 0.95,-0.29c0.517,-0.01 0.931,0.11 0.951,0.26z" fill="#263238"/>
<path id="Vector_468" d="M174.893,428.18v-8.84l-15.844,-0.11l-0.134,13.23l0.982,0.07c4.372,0.28 22.252,0.83 25.177,-0.08c3.265,-1.01 -10.181,-4.27 -10.181,-4.27z" fill="#4CAF4F"/>
<path id="Vector_469" d="M185.446,431.64c0,0.15 -5.923,0.27 -13.24,0.27c-7.317,0 -13.229,-0.12 -13.229,-0.27c0,-0.14 5.922,-0.27 13.229,-0.27c7.307,0 13.24,0.13 13.24,0.27z" fill="#263238"/>
<path id="Vector_470" d="M175.172,429.99c-0.124,-0.07 0,-0.54 0.321,-1.04c0.32,-0.49 0.754,-0.7 0.858,-0.59c0.103,0.1 -0.114,0.49 -0.424,0.92c-0.31,0.42 -0.62,0.78 -0.755,0.71z" fill="#263238"/>
<path id="Vector_471" d="M176.185,430.57c-0.134,0 -0.072,-0.58 0.248,-1.13c0.321,-0.55 0.724,-0.88 0.837,-0.8c0.114,0.09 -0.082,0.55 -0.372,1.04c-0.289,0.48 -0.568,0.94 -0.713,0.89z" fill="#263238"/>
<path id="Vector_472" d="M163.742,431.58c-0.062,0 -0.29,-0.19 -0.641,-0.58c-0.417,-0.5 -0.88,-0.97 -1.385,-1.38c-0.497,-0.4 -1.088,-0.66 -1.716,-0.76c-0.475,-0.06 -0.796,0 -0.827,-0.06c-0.031,-0.06 0.269,-0.28 0.838,-0.32c0.75,-0.02 1.482,0.23 2.067,0.7c0.551,0.45 1.013,0.99 1.364,1.6c0.238,0.46 0.362,0.76 0.3,0.8z" fill="#263238"/>
<path id="Vector_473" d="M175.224,428.32c0.072,0.13 -0.196,0.44 -0.651,0.6c-0.455,0.17 -0.858,0.11 -0.879,0c-0.02,-0.1 0.3,-0.32 0.693,-0.46c0.393,-0.15 0.754,-0.26 0.837,-0.14z" fill="#263238"/>
<path id="Vector_474" d="M174.997,427.47c0,0.15 -0.414,0.28 -0.951,0.29c-0.538,0.01 -0.951,-0.12 -0.941,-0.26c0.011,-0.15 0.424,-0.28 0.941,-0.29c0.517,-0.01 0.951,0.11 0.951,0.26z" fill="#263238"/>
<path id="Vector_475" d="M233.267,165.77c-0.414,-0.43 -1.437,-0.22 -1.437,-0.22c0.103,-0.59 0.103,-1.2 0,-1.8c-0.186,-0.58 -1.488,-0.46 -1.488,-0.46c-0.06,-0.49 -0.06,-0.98 0,-1.47c0.01,-0.11 -0.013,-0.22 -0.066,-0.31c-0.054,-0.1 -0.136,-0.17 -0.234,-0.22c-0.616,-0.25 -1.278,-0.37 -1.943,-0.35c-0.796,-0.57 2.429,-5.08 3.628,-6.53c1.199,-1.45 0.982,-2.57 -0.083,-2.57c-0.734,0 -4.496,4.34 -5.653,5.79c-1.158,1.46 -4.227,5.51 -4.331,2.28c-0.103,-3.24 -1.405,-5.68 -2.222,-6.09c-0.816,-0.41 -1.684,0.56 -1.24,1.46c0.391,1.02 0.634,2.09 0.724,3.18c0.112,0.87 0.073,1.75 -0.114,2.6c-0.343,1.6 -0.809,3.16 -1.395,4.68h-0.083c0,0 -22.552,21.63 -24.185,23.17c-1.457,1.38 -30.768,-1.65 -36.648,-2.27c-1.999,-0.29 -4.017,-0.43 -6.036,-0.41c-2.553,0.11 -3.008,0.48 -5.55,0.51c-6.421,0.07 -12.827,0.63 -19.162,1.68c-2.868,0.49 -5.548,1.76 -7.746,3.66c-2.198,1.91 -3.83,4.38 -4.718,7.15c-5.922,18.5 -19.337,62.29 -21.704,86.89c-1.789,3.24 -3.403,6.58 -4.837,10c-1.664,4.52 -1.261,4.68 -0.703,4.78c1.509,0.28 3.225,-7.84 3.865,-5.88c0.641,1.96 -3.255,9.68 -1.674,9.91c2.067,0.29 3.71,-8.27 3.907,-8.95c0.196,-0.68 1.219,-0.46 1.033,0.18c-0.299,0.91 -3.204,10.55 -1.178,10.86c1.116,0.16 1.24,-1.87 1.24,-1.87c0,0 2.067,-9.23 3.008,-9.04c0.94,0.18 -0.062,5.63 -0.537,7.45c-0.476,1.82 0.186,2.74 1.157,2.29c0.662,-0.31 2.243,-5.84 2.677,-7.64c0.434,-1.79 1.519,-6.78 2.976,-3.89c1.458,2.88 3.669,4.56 4.579,4.6c0.205,-0.03 0.398,-0.11 0.555,-0.25c0.156,-0.13 0.269,-0.31 0.323,-0.51c0.055,-0.2 0.049,-0.41 -0.018,-0.6c-0.066,-0.2 -0.189,-0.37 -0.354,-0.49c-0.782,-0.77 -1.453,-1.64 -1.994,-2.59c-0.482,-0.74 -0.832,-1.56 -1.034,-2.42c-0.416,-1.71 -0.659,-3.46 -0.723,-5.23l-0.166,-1.03c2.315,-11.46 8.982,-45.1 18.604,-66.59l3.948,8.12l1.716,6.02l-10.522,25.97l44.876,-0.59l-6.697,-25.77l8.134,-26.87c8.795,0.19 31.377,0.52 35.139,-1.18c4.734,-2.07 29.218,-32.99 29.218,-32.99c1.596,-1.24 3.125,-2.57 4.579,-3.97c0,0 1.488,-1.25 0.589,-2.18z" fill="#FFBE9D"/>
<path id="Vector_476" d="M115.455,240.13c1.302,-4.44 7.989,-26.42 7.989,-26.42c0,0 3.287,17.91 2.419,20.07c-0.799,1.85 -1.742,3.64 -2.822,5.34c-7.586,11.54 -6.594,17.32 -6.594,17.32l45.837,-1.4c0.104,-6.4 -3.689,-21.31 -4.475,-23.69c-0.785,-2.37 1.829,-10.15 1.829,-10.15c0,0 5.168,-5.27 4.982,-7.97c-0.098,-2.44 -0.399,-4.86 -0.899,-7.24l27.905,1.04l-0.878,-18.92l-40.081,-4.01c-1.395,3.94 -14.014,2.01 -14.014,2.01c-13.622,0.45 -14.47,2.95 -20.133,7.36c-5.664,4.4 -15.038,42.18 -15.038,42.18z" fill="#4CAF4F"/>
<path id="Vector_477" d="M142.554,235.65c-0.794,0.15 -1.603,0.19 -2.408,0.13c-1.498,0 -3.555,-0.1 -5.819,-0.33c-2.263,-0.23 -4.309,-0.55 -5.767,-0.84c-0.803,-0.1 -1.591,-0.3 -2.346,-0.6c0.808,0 1.615,0.08 2.408,0.23c1.468,0.18 3.504,0.44 5.757,0.67c2.253,0.23 4.3,0.38 5.777,0.49c0.806,0.01 1.609,0.09 2.398,0.25z" fill="#263238"/>
<path id="Vector_478" d="M145.696,231.76c-0.794,0.39 -1.635,0.68 -2.501,0.86c-4.123,1.08 -8.378,1.58 -12.64,1.49c-0.882,0.03 -1.764,-0.05 -2.625,-0.24c0.87,-0.11 1.748,-0.16 2.625,-0.14c1.623,-0.05 3.855,-0.16 6.315,-0.45c2.46,-0.29 4.651,-0.71 6.201,-1.04c0.861,-0.23 1.739,-0.39 2.625,-0.48z" fill="#263238"/>
<path id="Vector_479" d="M161.116,214.37c-0.02,0.79 -0.128,1.58 -0.32,2.34c-0.269,1.44 -0.682,3.4 -1.209,5.55c-0.527,2.15 -1.034,4.13 -1.488,5.48c-0.183,0.77 -0.454,1.51 -0.807,2.22c0.058,-0.79 0.204,-1.56 0.434,-2.32c0.393,-1.61 0.838,-3.47 1.334,-5.5c0.496,-2.04 0.971,-3.9 1.364,-5.51c0.14,-0.78 0.372,-1.54 0.692,-2.26z" fill="#263238"/>
<path id="Vector_480" d="M115.941,237.49c-2.391,-0.37 -4.751,-0.91 -7.059,-1.64c-2.359,-0.55 -4.673,-1.28 -6.925,-2.17c2.39,0.38 4.749,0.92 7.059,1.64c2.359,0.55 4.674,1.28 6.925,2.17z" fill="#263238"/>
<path id="Vector_481" d="M164.217,205.76c-0.39,0.07 -0.788,0.07 -1.178,0c-1.08,-0.11 -2.14,-0.36 -3.152,-0.75c-1.691,-0.64 -3.23,-1.62 -4.519,-2.88c-1.289,-1.27 -2.298,-2.79 -2.964,-4.47c-0.736,-1.84 -1.05,-3.83 -0.92,-5.82c0.046,-1.63 0.535,-3.23 1.416,-4.61c0.619,-0.93 1.544,-1.61 2.615,-1.93c0.286,-0.08 0.581,-0.12 0.878,-0.11c0.207,0 0.31,0 0.31,0c0,0 -0.434,0 -1.126,0.28c-0.982,0.36 -1.815,1.04 -2.367,1.93c-1.406,2.21 -1.798,6.25 -0.3,10.02c0.698,1.78 1.79,3.38 3.194,4.68c1.15,1.06 2.476,1.91 3.917,2.52c1.352,0.53 2.76,0.92 4.196,1.14z" fill="#263238"/>
<path id="Vector_482" d="M188.309,206.65c-0.259,-3.17 -0.342,-6.35 -0.249,-9.53c-0.08,-3.17 0.016,-6.35 0.29,-9.51c0.259,3.16 0.341,6.34 0.248,9.51c0.087,3.18 -0.01,6.37 -0.289,9.53z" fill="#263238"/>
<path id="Vector_483" d="M150.399,185.26c0.113,-2.31 0.351,-4.91 0.351,-4.91c0,0 5.705,-0.63 6.046,-6.52c0.341,-5.89 0,-19.48 0,-19.48l-10.335,-5.29l-11.472,9.02l1.767,29.45l10.521,0.68c0.805,0.02 1.585,-0.28 2.17,-0.83c0.585,-0.55 0.927,-1.32 0.952,-2.12z" fill="#FFBE9D"/>
<path id="Vector_484" d="M151.422,169.17c0,0 0,0.11 -0.093,0.25c-0.077,0.09 -0.176,0.17 -0.29,0.22c-0.113,0.05 -0.237,0.07 -0.361,0.07c-0.662,0 -1.302,-0.77 -1.53,-1.66c-0.108,-0.43 -0.108,-0.88 0,-1.31c0.021,-0.19 0.089,-0.37 0.198,-0.52c0.108,-0.16 0.253,-0.29 0.422,-0.37c0.139,-0.06 0.295,-0.06 0.434,0c0.103,0.05 0.187,0.13 0.238,0.24c0.072,0.17 0,0.29 0,0.28c0,-0.01 0,-0.11 -0.103,-0.21c-0.054,-0.07 -0.134,-0.13 -0.223,-0.14c-0.09,-0.02 -0.184,-0.01 -0.263,0.04c-0.127,0.07 -0.232,0.18 -0.306,0.31c-0.074,0.13 -0.115,0.27 -0.118,0.42c-0.087,0.38 -0.087,0.78 0,1.17c0.207,0.8 0.765,1.46 1.261,1.52c0.097,0.01 0.196,0 0.29,-0.02c0.094,-0.03 0.182,-0.08 0.258,-0.14c0.124,-0.08 0.165,-0.16 0.186,-0.15z" fill="#EB996E"/>
<path id="Vector_485" d="M160.341,151.16c-0.796,-2.7 -3.679,-4.05 -6.304,-4.79c-4,-1.14 -8.32,-1.63 -12.227,-0.2c-3.907,1.44 -8.599,3.96 -8.599,8.27c-2.305,-0.19 -3.627,1.83 -4.537,4.33c-0.581,1.52 -0.93,3.13 -1.034,4.75c-0.289,5.65 -1.87,13.44 -5.529,17.57c-2.067,2.31 -4.93,3.9 -6.108,6.77c-1.034,2.49 -0.496,5.45 -1.457,7.97c-0.858,2.22 -2.749,3.81 -4.134,5.74c-1.411,2.19 -2.242,4.71 -2.413,7.31c-0.172,2.6 0.32,5.2 1.431,7.56c1.118,2.3 2.693,4.35 4.628,6.02c1.935,1.67 4.19,2.93 6.627,3.7c4.828,1.47 9.976,1.52 14.831,0.14c3.644,-0.87 7.043,-2.56 9.942,-4.93c2.967,-2.42 5.005,-5.8 5.768,-9.55c0.733,-4.22 -0.445,-8.5 -1.323,-12.7c-2.75,-13.26 -1.964,-13.95 1.509,-26.26c0.082,-0.22 0.124,-0.45 0.186,-0.66c0.062,-0.22 0.093,-0.32 0.134,-0.49c0.099,-0.49 0.151,-0.98 0.155,-1.48c-0.507,0.19 -1.058,0.23 -1.587,0.12c-0.529,-0.12 -1.015,-0.38 -1.4,-0.76c-0.386,-0.4 -0.655,-0.91 -0.779,-1.45c-0.124,-0.55 -0.097,-1.12 0.076,-1.65c0.244,-0.58 0.608,-1.11 1.067,-1.54c0.459,-0.43 1.004,-0.76 1.6,-0.97c1.147,-0.48 2.377,-0.72 3.503,-1.25c2.388,-1.14 4.042,-3.49 5.168,-5.96c0.926,-1.72 1.212,-3.7 0.806,-5.61z" fill="#263238"/>
<path id="Vector_486" d="M151.835,169.45c0.219,0.32 0.399,0.67 0.538,1.03c0.31,0.65 0.723,1.57 1.178,2.64l0.083,0.19h-0.217l-1.034,0.1c-0.713,0 -1.312,0.13 -2.015,0.12c-0.061,-0.01 -0.118,-0.04 -0.165,-0.09c-0.047,-0.04 -0.083,-0.09 -0.104,-0.15c-0.031,-0.09 -0.031,-0.19 0,-0.29c0.024,-0.14 0.055,-0.28 0.093,-0.41l0.186,-0.74c0.094,-0.48 0.239,-0.96 0.434,-1.42c-0.019,0.5 -0.092,0.99 -0.217,1.48l-0.145,0.73c-0.051,0.25 -0.144,0.63 0,0.6c0.517,0 1.251,-0.11 1.933,-0.16l1.034,-0.09l-0.135,0.23c-0.444,-1.03 -0.816,-2.01 -1.033,-2.68c-0.191,-0.34 -0.33,-0.71 -0.414,-1.09z" fill="#4CAF4F"/>
<path id="Vector_487" d="M116.447,256.44l45.837,-1.4l19.947,77.87l-3.669,89.32h-24.236l2.966,-87.42l-17.725,-54.21l2.729,145.09l-24.495,0.36l-2.573,-136.37c-0.114,-3.8 -1.354,-12.34 -0.889,-16.11z" fill="#263238"/>
<path id="Vector_488" d="M145.665,281.71c-0.75,0.05 -1.503,0 -2.243,-0.14c-1.384,-0.16 -3.276,-0.45 -5.353,-0.86c-2.078,-0.42 -3.938,-0.89 -5.282,-1.28c-0.718,-0.15 -1.413,-0.4 -2.067,-0.74c0,-0.15 3.37,0.65 7.504,1.49c4.134,0.84 7.462,1.37 7.441,1.53z" fill="#455A64"/>
<path id="Vector_489" d="M178.314,417.33c0,0.14 -5.488,0.27 -12.257,0.27c-6.77,0 -12.268,-0.13 -12.268,-0.27c0,-0.15 5.488,-0.27 12.268,-0.27c6.78,0 12.257,0.11 12.257,0.27z" fill="#455A64"/>
<path id="Vector_490" d="M142.079,421.92c0,0.15 -5.333,0.27 -11.906,0.27c-6.574,0 -11.896,-0.12 -11.896,-0.27c0,-0.16 5.333,-0.27 11.896,-0.27c6.563,0 11.906,0.12 11.906,0.27z" fill="#455A64"/>
<path id="Vector_491" d="M138.916,421.54c-0.144,0 -0.785,-31.69 -1.436,-70.79c-0.651,-39.1 -1.034,-70.82 -0.9,-70.82c0.135,0 0.796,31.69 1.437,70.81c0.641,39.12 1.054,70.8 0.899,70.8z" fill="#455A64"/>
<path id="Vector_492" d="M175.059,417.33c-0.012,-0.14 -0.012,-0.29 0,-0.43v-1.24c0,-1.11 0.082,-2.71 0.144,-4.75c0.145,-4.13 0.352,-10.14 0.61,-17.5c0.558,-14.8 1.344,-35.2 2.202,-57.72c0,-0.22 0,-0.42 0,-0.61v0.07c-5.426,-21.7 -10.336,-41.4 -13.901,-55.65l-4.134,-16.86c-0.476,-1.97 -0.838,-3.51 -1.096,-4.59c-0.124,-0.51 -0.207,-0.9 -0.279,-1.2c-0.04,-0.13 -0.065,-0.27 -0.072,-0.41c0.053,0.13 0.095,0.26 0.124,0.4c0.082,0.29 0.186,0.68 0.33,1.18c0.279,1.03 0.682,2.6 1.199,4.57c1.034,3.99 2.491,9.73 4.31,16.81c3.597,14.25 8.558,33.89 14.056,55.63v0.07c0,0.19 0,0.4 0,0.61c-0.92,22.52 -1.757,42.91 -2.367,57.71c-0.32,7.37 -0.589,13.33 -0.775,17.49c-0.103,2.07 -0.186,3.64 -0.238,4.75c0,0.53 -0.062,0.94 -0.072,1.24c0.002,0.15 -0.012,0.29 -0.041,0.43z" fill="#455A64"/>
<path id="Vector_493" d="M167.152,333.26c-1.741,0.57 -3.534,0.97 -5.353,1.19c-2.233,0.38 -4.135,0.65 -4.992,0.69v-0.21c0.279,0.09 0.423,0.14 0.423,0.18c0,0.04 -0.175,0 -0.465,0h-0.62l0.62,-0.19c0.806,-0.23 2.708,-0.63 4.941,-1.03c1.79,-0.39 3.614,-0.6 5.446,-0.63z" fill="#455A64"/>
<path id="Vector_494" d="M166.728,336.23c-1.612,0.07 -3.227,0 -4.826,-0.22c-1.614,-0.03 -3.223,-0.21 -4.806,-0.53c3.23,-0.26 6.481,-0.01 9.632,0.75z" fill="#455A64"/>
<path id="Vector_495" opacity="0.2" d="M116.251,258.08c0.543,0.7 1.227,1.27 2.007,1.69c0.78,0.41 1.638,0.66 2.52,0.72c1.846,0.22 3.713,0.18 5.55,-0.1c11.834,-1.32 24.37,-2.53 35.956,-5.35c-14.996,0.84 -30.84,0.56 -45.837,1.4l-0.155,1.28" fill="black"/>
<g id="Group_17" opacity="0.2">
<path id="Vector_496" d="M131.702,279.22l8.455,32.8l-0.59,-31.42z" fill="black"/>
</g>
</g>
</g></svg>