<svg viewBox="0 0 154.4904 24" x="0" y="0" fill="none" xmlns="http://www.w3.org/2000/svg"><g id="Logo_28" xmlns="http://www.w3.org/2000/svg">
<g id="Icon_12">
<path id="Vector_531" d="M18.786,13.1341l-5.391,9.2328l-5.391,-9.2328zM20.231,12.3088h-13.677l6.841,11.6912z" fill="#263238"/>
<path id="Vector_532" d="M28.159,1.6504l5.391,9.2329h-10.782zM28.159,0l-6.841,11.6912h13.682z" fill="#263238"/>
<path id="Vector_533" d="M0,0l5.736,10.3409l6.268,-10.0812z" fill="#4CAF4F"/>
<path id="Vector_534" d="M13.396,0.9058l6.016,10.2831h-12.045z" fill="#4CAF4F"/>
<path id="Vector_535" d="M20.961,13.4341l6.023,10.5659h-12.331l6.121,-10.5659z" fill="#4CAF4F"/>
<path id="Vector_536" d="M22.265,12.7935l5.894,10.4043l5.976,-10.4043z" fill="#4CAF4F"/>
</g>
<g id="Nexcent_2">
<path d="M60.033,1.6689v20.3637h-3.719l-8.859,-12.8168h-0.15v12.8168h-4.305v-20.3637h3.778l8.79,12.8069h0.179v-12.8069z" fill="#263238"/>
<path d="M70.471,22.3309c-1.571,0 -2.924,-0.3182 -4.057,-0.9546c-1.127,-0.643 -1.996,-1.5511 -2.605,-2.7244c-0.61,-1.1799 -0.915,-2.5753 -0.915,-4.1861c0,-1.571 0.305,-2.9498 0.915,-4.1363c0.609,-1.1866 1.468,-2.1113 2.575,-2.7742c1.114,-0.6629 2.419,-0.9943 3.917,-0.9943c1.008,0 1.946,0.1624 2.814,0.4872c0.875,0.3182 1.638,0.7988 2.287,1.4418c0.657,0.643 1.167,1.4517 1.532,2.4261c0.364,0.9678 0.546,2.1013 0.546,3.4006v1.1633h-12.896v-2.625h8.909c0,-0.6098 -0.132,-1.1501 -0.397,-1.6207c-0.266,-0.4707 -0.634,-0.8386 -1.104,-1.1037c-0.464,-0.2718 -1.004,-0.4077 -1.621,-0.4077c-0.643,0 -1.213,0.1492 -1.71,0.4475c-0.491,0.2916 -0.875,0.686 -1.154,1.1832c-0.278,0.4905 -0.42,1.0374 -0.427,1.6406v2.4958c0,0.7557 0.139,1.4086 0.418,1.9588c0.285,0.5502 0.686,0.9744 1.203,1.2727c0.517,0.2983 1.13,0.4474 1.839,0.4474c0.471,0 0.902,-0.0662 1.293,-0.1988c0.391,-0.1326 0.726,-0.3315 1.004,-0.5966c0.278,-0.2652 0.491,-0.59 0.636,-0.9744l3.918,0.2585c-0.199,0.9413 -0.607,1.7632 -1.223,2.4659c-0.61,0.696 -1.399,1.2396 -2.367,1.6307c-0.961,0.3844 -2.071,0.5767 -3.33,0.5767z" fill="#263238"/>
<path d="M83.511,6.7599l2.804,5.3394l2.874,-5.3394h4.345l-4.425,7.6363l4.544,7.6364h-4.325l-3.013,-5.2798l-2.963,5.2798h-4.375l4.534,-7.6364l-4.375,-7.6363z" fill="#263238"/>
<path d="M102.403,22.3309c-1.564,0 -2.91,-0.3315 -4.037,-0.9943c-1.12,-0.6695 -1.982,-1.5976 -2.585,-2.7841c-0.597,-1.1866 -0.895,-2.5521 -0.895,-4.0966c0,-1.5644 0.302,-2.9366 0.905,-4.1165c0.61,-1.1866 1.475,-2.1113 2.595,-2.7741c1.12,-0.6696 2.453,-1.0043 3.997,-1.0043c1.333,0 2.499,0.2419 3.5,0.7258c1.001,0.4839 1.793,1.1634 2.377,2.0384c0.583,0.875 0.904,1.9025 0.964,3.0824h-3.997c-0.113,-0.7623 -0.411,-1.3755 -0.895,-1.8395c-0.477,-0.4707 -1.104,-0.706 -1.879,-0.706c-0.656,0 -1.23,0.179 -1.72,0.537c-0.484,0.3513 -0.862,0.865 -1.134,1.5412c-0.272,0.6761 -0.408,1.4947 -0.408,2.4559c0,0.9745 0.133,1.803 0.398,2.4858c0.272,0.6828 0.653,1.2031 1.144,1.5611c0.49,0.3579 1.064,0.5369 1.72,0.5369c0.484,0 0.918,-0.0994 1.302,-0.2983c0.391,-0.1988 0.713,-0.4872 0.965,-0.865c0.258,-0.3845 0.427,-0.8452 0.507,-1.3821h3.997c-0.066,1.1666 -0.384,2.1941 -0.954,3.0824c-0.564,0.8816 -1.343,1.571 -2.337,2.0681c-0.994,0.4972 -2.171,0.7458 -3.53,0.7458z" fill="#263238"/>
<path d="M118.896,22.3309c-1.571,0 -2.923,-0.3182 -4.057,-0.9546c-1.126,-0.643 -1.995,-1.5511 -2.605,-2.7244c-0.609,-1.1799 -0.914,-2.5753 -0.914,-4.1861c0,-1.571 0.305,-2.9498 0.914,-4.1363c0.61,-1.1866 1.469,-2.1113 2.576,-2.7742c1.113,-0.6629 2.419,-0.9943 3.917,-0.9943c1.008,0 1.946,0.1624 2.814,0.4872c0.875,0.3182 1.638,0.7988 2.287,1.4418c0.656,0.643 1.167,1.4517 1.531,2.4261c0.365,0.9678 0.547,2.1013 0.547,3.4006v1.1633h-12.896v-2.625h8.909c0,-0.6098 -0.133,-1.1501 -0.398,-1.6207c-0.265,-0.4707 -0.633,-0.8386 -1.103,-1.1037c-0.464,-0.2718 -1.005,-0.4077 -1.621,-0.4077c-0.643,0 -1.213,0.1492 -1.71,0.4475c-0.491,0.2916 -0.875,0.686 -1.154,1.1832c-0.278,0.4905 -0.421,1.0374 -0.427,1.6406v2.4958c0,0.7557 0.139,1.4086 0.417,1.9588c0.285,0.5502 0.686,0.9744 1.203,1.2727c0.517,0.2983 1.131,0.4474 1.84,0.4474c0.471,0 0.901,-0.0662 1.293,-0.1988c0.391,-0.1326 0.725,-0.3315 1.004,-0.5966c0.278,-0.2652 0.49,-0.59 0.636,-0.9744l3.918,0.2585c-0.199,0.9413 -0.607,1.7632 -1.223,2.4659c-0.61,0.696 -1.399,1.2396 -2.367,1.6307c-0.961,0.3844 -2.071,0.5767 -3.331,0.5767z" fill="#263238"/>
<path d="M132.906,13.203v8.8296h-4.236v-15.2727h4.037v2.6946h0.179c0.338,-0.8883 0.905,-1.591 1.701,-2.108c0.795,-0.5237 1.76,-0.7855 2.893,-0.7855c1.061,0 1.985,0.232 2.774,0.696c0.789,0.464 1.402,1.1269 1.84,1.9887c0.437,0.8551 0.656,1.8759 0.656,3.0625v9.7244h-4.236v-8.9688c0.007,-0.9346 -0.232,-1.6638 -0.716,-2.1875c-0.484,-0.5303 -1.15,-0.7954 -1.998,-0.7954c-0.57,0 -1.074,0.1226 -1.512,0.3679c-0.431,0.2452 -0.769,0.6032 -1.014,1.0738c-0.238,0.4641 -0.361,1.0242 -0.368,1.6804z" fill="#263238"/>
<path d="M154.212,6.7599v3.1818h-9.197v-3.1818zM147.103,3.1008h4.235v14.2386c0,0.3911 0.06,0.696 0.179,0.9148c0.12,0.2121 0.285,0.3612 0.498,0.4474c0.218,0.0862 0.47,0.1293 0.755,0.1293c0.199,0 0.398,-0.0166 0.597,-0.0497c0.199,-0.0398 0.351,-0.0696 0.457,-0.0895l0.666,3.152c-0.212,0.0663 -0.51,0.1425 -0.894,0.2287c-0.385,0.0928 -0.852,0.1491 -1.402,0.169c-1.021,0.0398 -1.916,-0.0961 -2.685,-0.4077c-0.762,-0.3115 -1.356,-0.7954 -1.78,-1.4517c-0.424,-0.6562 -0.633,-1.4848 -0.626,-2.4858z" fill="#263238"/>
</g>
</g></svg>